<?xml version="1.0" encoding="UTF-8"?>
<svg version="1.1" xmlns="http://www.w3.org/2000/svg" width="800" height="404">
<path d="M0 0 C264 0 528 0 800 0 C800 133.32 800 266.64 800 404 C536 404 272 404 0 404 C0 270.68 0 137.36 0 0 Z " fill="#FAFAFA" transform="translate(0,0)"/>
<path d="M0 0 C-0.33 0.99 -0.66 1.98 -1 3 C-0.67 3 -0.34 3 0 3 C0.66 2.01 1.32 1.02 2 0 C2.99 0 3.98 0 5 0 C5.33 1.32 5.66 2.64 6 4 C7.32 4.33 8.64 4.66 10 5 C10.33 3.68 10.66 2.36 11 1 C11.99 1 12.98 1 14 1 C14 1.66 14 2.32 14 3 C14.99 2.01 15.98 1.02 17 0 C19.21736634 1.10868317 21.03617993 2.49440461 23 4 C22.67 5.98 22.34 7.96 22 10 C20.35 10 18.7 10 17 10 C18.1490712 11.2981424 18.1490712 11.2981424 21 12 C21 12.66 21 13.32 21 14 C18.83125748 13.49396008 17.00032373 13.00016187 15 12 C15 13.32 15 14.64 15 16 C11.43672942 16.08098342 8.43949858 15.85987464 5 15 C4.01 15.495 4.01 15.495 3 16 C2.34 15.67 1.68 15.34 1 15 C1 14.01 1 13.02 1 12 C0.67 12.66 0.34 13.32 0 14 C-1.92578125 14.6328125 -1.92578125 14.6328125 -4.3125 15.125 C-5.09238281 15.29257813 -5.87226562 15.46015625 -6.67578125 15.6328125 C-10.10943147 16.17527153 -13.52822845 16 -17 16 C-17.33 14.68 -17.66 13.36 -18 12 C-17.34 12 -16.68 12 -16 12 C-15.01 11.34 -14.02 10.68 -13 10 C-14.32 10 -15.64 10 -17 10 C-17 8.02 -17 6.04 -17 4 C-15.41701974 3.5196682 -13.83360022 3.04078388 -12.25 2.5625 C-11.36828125 2.29566406 -10.4865625 2.02882812 -9.578125 1.75390625 C-6.23734987 0.77698261 -3.49651538 0 0 0 Z " fill="#F4F0F2" transform="translate(50,56)"/>
<path d="M0 0 C0.66 0.33 1.32 0.66 2 1 C4.33425788 0.6732039 6.66742506 0.33859959 9 0 C12.51120522 -0.17955027 15.92791113 -0.23023548 19.3828125 0.51171875 C22.25451443 1.04748403 24.83274461 1.02625248 27.75 0.9375 C32.47151122 0.88510345 36.60697699 1.34153573 41.16015625 2.5625 C43.17124542 3.11567063 43.17124542 3.11567063 46 3 C46 4.32 46 5.64 46 7 C45.36191406 7.13277344 44.72382812 7.26554688 44.06640625 7.40234375 C43.24011719 7.57894531 42.41382813 7.75554687 41.5625 7.9375 C40.73878906 8.11152344 39.91507813 8.28554687 39.06640625 8.46484375 C37.02338796 8.80752994 37.02338796 8.80752994 36 10 C26.60802586 10.51300699 17.73814333 10.88361926 9 7 C8.01 8.485 8.01 8.485 7 10 C6.01 10 5.02 10 4 10 C4 9.34 4 8.68 4 8 C2.989375 8.20625 1.97875 8.4125 0.9375 8.625 C-3.49506869 9.0471494 -5.86108962 8.4359485 -10 7 C-10 6.01 -10 5.02 -10 4 C-10.99 4 -11.98 4 -13 4 C-13 4.66 -13 5.32 -13 6 C-12.34 6.33 -11.68 6.66 -11 7 C-13.64 7 -16.28 7 -19 7 C-18.67 5.68 -18.34 4.36 -18 3 C-12.06 3 -6.12 3 0 3 C0 2.01 0 1.02 0 0 Z " fill="#FCF5E6" transform="translate(545,204)"/>
<path d="M0 0 C3.0190434 1.75299294 5.41511201 3.83022401 7 7 C7.59968751 12.27725011 6.27164725 14.88707202 3 19 C-1.01005889 21.67337259 -4.2884338 21.93404733 -9 21 C-12.5103106 18.0016097 -13.75672578 15.8666644 -15 11.4375 C-15 6.65913351 -13.48265898 4.59248557 -10.3125 1.1875 C-6.89127695 -0.56934427 -3.7048151 -0.78220664 0 0 Z " fill="#141315" transform="translate(218,103)"/>
<path d="M0 0 C3.71599191 -0.20086443 4.77208445 -0.1519437 8 2 C8.33 1.34 8.66 0.68 9 0 C9.66 0.33 10.32 0.66 11 1 C11 1.66 11 2.32 11 3 C10.34 3.33 9.68 3.66 9 4 C9.99 4.33 10.98 4.66 12 5 C12 6.65 12 8.3 12 10 C11.01604248 9.99214478 11.01604248 9.99214478 10.01220703 9.98413086 C7.04981437 9.96338728 4.08743697 9.95034824 1.125 9.9375 C0.09246094 9.92912109 -0.94007812 9.92074219 -2.00390625 9.91210938 C-2.99003906 9.90888672 -3.97617187 9.90566406 -4.9921875 9.90234375 C-5.90339355 9.89710693 -6.81459961 9.89187012 -7.75341797 9.88647461 C-10.03687509 9.85114435 -10.03687509 9.85114435 -12 11 C-12.99 10.67 -13.98 10.34 -15 10 C-16.55421729 9.91893314 -18.11167027 9.89243102 -19.66796875 9.90234375 C-20.56064453 9.90556641 -21.45332031 9.90878906 -22.37304688 9.91210938 C-23.30181641 9.92048828 -24.23058594 9.92886719 -25.1875 9.9375 C-26.12787109 9.94201172 -27.06824219 9.94652344 -28.03710938 9.95117188 C-30.35813712 9.96295374 -32.67903644 9.97940442 -35 10 C-35 7.69 -35 5.38 -35 3 C-33.68 2.34 -32.36 1.68 -31 1 C-31 1.66 -31 2.32 -31 3 C-30.01 3 -29.02 3 -28 3 C-27.67 3.66 -27.34 4.32 -27 5 C-18.09 5 -9.18 5 0 5 C0 3.35 0 1.7 0 0 Z " fill="#C2C1C5" transform="translate(67,224)"/>
<path d="M0 0 C2.12890625 0.48046875 2.12890625 0.48046875 4.69140625 2.54296875 C6.50672302 6.2525291 6.78512862 8.39730732 6.12890625 12.48046875 C3.67890178 15.86723964 2.26498179 17.26745459 -1.87109375 18.04296875 C-5.53016879 17.35689218 -7.22277051 16.05312561 -9.87109375 13.48046875 C-11.29771594 10.62722438 -11.18143243 8.64592326 -10.87109375 5.48046875 C-8.29697922 0.33223968 -5.41218741 -0.32990269 0 0 Z " fill="#0E0E0F" transform="translate(776.87109375,8.51953125)"/>
<path d="M0 0 C0.70125 0.391875 1.4025 0.78375 2.125 1.1875 C4.44995277 1.57499213 6.78351268 1.91732839 9.125 2.1875 C8.795 3.5075 8.465 4.8275 8.125 6.1875 C5.23265685 7.01388376 3.23757569 7.1875 0.125 7.1875 C-0.844375 7.373125 -1.81375 7.55875 -2.8125 7.75 C-5.875 8.1875 -5.875 8.1875 -8.171875 7.6875 C-11.32424177 7.10440326 -14.002135 7.3099639 -17.1875 7.625 C-18.25613281 7.72683594 -19.32476563 7.82867187 -20.42578125 7.93359375 C-21.63814453 8.05927734 -21.63814453 8.05927734 -22.875 8.1875 C-22.875 7.5275 -22.875 6.8675 -22.875 6.1875 C-23.535 6.1875 -24.195 6.1875 -24.875 6.1875 C-24.875 5.1975 -24.875 4.2075 -24.875 3.1875 C-25.535 3.1875 -26.195 3.1875 -26.875 3.1875 C-26.875 4.1775 -26.875 5.1675 -26.875 6.1875 C-30.175 6.1875 -33.475 6.1875 -36.875 6.1875 C-36.545 4.8675 -36.215 3.5475 -35.875 2.1875 C-32.41668414 2.15855453 -28.95839928 2.14072 -25.5 2.125 C-24.02273438 2.11243164 -24.02273438 2.11243164 -22.515625 2.09960938 C-21.10410156 2.09477539 -21.10410156 2.09477539 -19.6640625 2.08984375 C-18.36009521 2.08198853 -18.36009521 2.08198853 -17.02978516 2.07397461 C-14.875 2.1875 -14.875 2.1875 -12.875 3.1875 C-12.875 3.8475 -12.875 4.5075 -12.875 5.1875 C-11.885 5.1875 -10.895 5.1875 -9.875 5.1875 C-9.875 4.1975 -9.875 3.2075 -9.875 2.1875 C-9.215 2.5175 -8.555 2.8475 -7.875 3.1875 C-8.205 3.8475 -8.535 4.5075 -8.875 5.1875 C-8.215 5.1875 -7.555 5.1875 -6.875 5.1875 C-6.875 3.8675 -6.875 2.5475 -6.875 1.1875 C-2.41071429 -1.04464286 -2.41071429 -1.04464286 0 0 Z " fill="#F9E1E1" transform="translate(723.875,204.8125)"/>
<path d="M0 0 C0.99 0 1.98 0 3 0 C3 1.32 3 2.64 3 4 C3.804375 3.979375 4.60875 3.95875 5.4375 3.9375 C8 4 8 4 9 5 C9.1875 7.9375 9.1875 7.9375 9 11 C7 13 7 13 3.3046875 13.1953125 C1.82799892 13.182009 0.35137642 13.15814835 -1.125 13.125 C-1.87910156 13.11597656 -2.63320312 13.10695313 -3.41015625 13.09765625 C-5.27357254 13.0740687 -7.13682593 13.03819719 -9 13 C-9 9.04 -9 5.08 -9 1 C-8.34 1 -7.68 1 -7 1 C-6.67 1.99 -6.34 2.98 -6 4 C-4.35 4 -2.7 4 -1 4 C-0.67 2.68 -0.34 1.36 0 0 Z " fill="#CAC9CB" transform="translate(229,55)"/>
<path d="M0 0 C0.99 0 1.98 0 3 0 C3.2475 0.639375 3.495 1.27875 3.75 1.9375 C4.81562433 4.18741541 4.81562433 4.18741541 7.125 4.75 C7.74375 4.8325 8.3625 4.915 9 5 C9.33 3.68 9.66 2.36 10 1 C10.99 1 11.98 1 13 1 C13 1.66 13 2.32 13 3 C13.99 2.01 14.98 1.02 16 0 C18.21736634 1.10868317 20.03617993 2.49440461 22 4 C21.67 5.98 21.34 7.96 21 10 C12.75 10 4.5 10 -4 10 C-4 8.02 -4 6.04 -4 4 C-3.01 3.67 -2.02 3.34 -1 3 C-0.67 2.01 -0.34 1.02 0 0 Z " fill="#ECE7F6" transform="translate(51,56)"/>
<path d="M0 0 C0.66 0.33 1.32 0.66 2 1 C3.7325 0.7525 3.7325 0.7525 5.5 0.5 C9 0 9 0 11 1 C11 1.66 11 2.32 11 3 C12.98 3 14.96 3 17 3 C16.67 4.32 16.34 5.64 16 7 C14.88625 6.938125 13.7725 6.87625 12.625 6.8125 C10.830625 6.9053125 10.830625 6.9053125 9 7 C8.01 8.485 8.01 8.485 7 10 C6.01 10 5.02 10 4 10 C4 9.34 4 8.68 4 8 C2.989375 8.20625 1.97875 8.4125 0.9375 8.625 C-3.49506869 9.0471494 -5.86108962 8.4359485 -10 7 C-10 6.01 -10 5.02 -10 4 C-10.99 4 -11.98 4 -13 4 C-13 4.66 -13 5.32 -13 6 C-12.34 6.33 -11.68 6.66 -11 7 C-13.64 7 -16.28 7 -19 7 C-18.67 5.68 -18.34 4.36 -18 3 C-12.06 3 -6.12 3 0 3 C0 2.01 0 1.02 0 0 Z " fill="#FCF3E3" transform="translate(545,204)"/>
<path d="M0 0 C5.15656448 0.5349836 10.34908554 0.36326222 15.52734375 0.32470703 C16.68363281 0.32019531 17.83992188 0.31568359 19.03125 0.31103516 C21.863336 0.29933232 24.69531186 0.28293699 27.52734375 0.26220703 C28.02234375 2.73720703 28.02234375 2.73720703 28.52734375 5.26220703 C17.30734375 5.26220703 6.08734375 5.26220703 -5.47265625 5.26220703 C-5.47265625 4.27220703 -5.47265625 3.28220703 -5.47265625 2.26220703 C-6.13265625 2.26220703 -6.79265625 2.26220703 -7.47265625 2.26220703 C-7.80265625 3.25220703 -8.13265625 4.24220703 -8.47265625 5.26220703 C-8.09765625 2.82470703 -8.09765625 2.82470703 -7.47265625 0.26220703 C-4.80019166 -1.07402526 -2.87383433 -0.40470135 0 0 Z " fill="#B5B5B5" transform="translate(50.47265625,168.73779296875)"/>
<path d="M0 0 C3.46941546 0.45822468 6.67395049 0.89131683 10 2 C10.99 1.67 11.98 1.34 13 1 C13 2.65 13 4.3 13 6 C8.38 6.33 3.76 6.66 -1 7 C-1 7.99 -1 8.98 -1 10 C-3 9 -5 8 -7 7 C-8.99960012 6.960008 -11.00047242 6.95653201 -13 7 C-13 5.02 -13 3.04 -13 1 C-9.04 1.33 -5.08 1.66 -1 2 C-0.67 1.34 -0.34 0.68 0 0 Z " fill="#FAE6E6" transform="translate(671,205)"/>
<path d="M0 0 C1.4540625 0.0309375 1.4540625 0.0309375 2.9375 0.0625 C3.2675 1.0525 3.5975 2.0425 3.9375 3.0625 C4.5975 2.0725 5.2575 1.0825 5.9375 0.0625 C9 -0.1875 9 -0.1875 11.9375 0.0625 C12.9375 1.0625 12.9375 1.0625 13.03515625 2.91015625 C13.00260417 4.9609375 12.97005208 7.01171875 12.9375 9.0625 C6.1875 9.1875 6.1875 9.1875 3.9375 8.0625 C2.9475 8.248125 1.9575 8.43375 0.9375 8.625 C-0.5475 8.8415625 -0.5475 8.8415625 -2.0625 9.0625 C-4.0625 7.0625 -4.0625 7.0625 -4.25 4 C-3.9998913 0.08163043 -3.9998913 0.08163043 0 0 Z " fill="#B4B4B4" transform="translate(244.0625,58.9375)"/>
<path d="M0 0 C0 0.66 0 1.32 0 2 C1.11375 2.309375 2.2275 2.61875 3.375 2.9375 C7 4 7 4 9 5 C8.67 6.32 8.34 7.64 8 9 C8 8.34 8 7.68 8 7 C3.65815798 7.18464366 3.65815798 7.18464366 0 9 C-1.64436757 9.07250298 -3.29167202 9.08375172 -4.9375 9.0625 C-5.83339844 9.05347656 -6.72929688 9.04445313 -7.65234375 9.03515625 C-8.42707031 9.02355469 -9.20179687 9.01195312 -10 9 C-10.66 9 -11.32 9 -12 9 C-13.32 9 -14.64 9 -16 9 C-16 7.02 -16 5.04 -16 3 C-15.67 3 -15.34 3 -15 3 C-15 4.65 -15 6.3 -15 8 C-14.34 8 -13.68 8 -13 8 C-13 6.35 -13 4.7 -13 3 C-11.02 2.67 -9.04 2.34 -7 2 C-7 2.66 -7 3.32 -7 4 C-6.401875 3.34 -5.80375 2.68 -5.1875 2 C-3 0 -3 0 0 0 Z " fill="#DADADA" transform="translate(49,273)"/>
<path d="M0 0 C3.71599191 -0.20086443 4.77208445 -0.1519437 8 2 C8.33 1.34 8.66 0.68 9 0 C9.66 0.33 10.32 0.66 11 1 C11 1.66 11 2.32 11 3 C10.01 3.495 10.01 3.495 9 4 C9.99 4.33 10.98 4.66 12 5 C12 6.65 12 8.3 12 10 C7.05 10 2.1 10 -3 10 C-3.33 9.01 -3.66 8.02 -4 7 C-4.33 7.66 -4.66 8.32 -5 9 C-5.66 8.67 -6.32 8.34 -7 8 C-6.67 7.34 -6.34 6.68 -6 6 C-7.32 5.67 -8.64 5.34 -10 5 C-6.7 5 -3.4 5 0 5 C0 3.35 0 1.7 0 0 Z " fill="#EDEDEF" transform="translate(67,224)"/>
<path d="M0 0 C1.98 0 3.96 0 6 0 C6 0.33 6 0.66 6 1 C8.0831793 1.16858098 10.16655044 1.33479255 12.25 1.5 C13.41015625 1.5928125 14.5703125 1.685625 15.765625 1.78125 C18.17268658 1.94404644 20.58743951 2 23 2 C23 3.32 23 4.64 23 6 C18.87933146 8.06033427 16.45659563 7.89131913 12 7 C11.01 7.495 11.01 7.495 10 8 C9.01 7.67 8.02 7.34 7 7 C5.96875 7 4.9375 7 3.875 7 C2.92625 7 1.9775 7 1 7 C0 6 0 6 -0.0625 2.9375 C-0.041875 1.968125 -0.02125 0.99875 0 0 Z " fill="#A6A6A6" transform="translate(32,191)"/>
<path d="M0 0 C6.0546875 -0.1953125 6.0546875 -0.1953125 8 0 C10 2 10 2 10.375 4.875 C10 8 10 8 8.375 10.375 C6 12 6 12 0 12 C0 8.04 0 4.08 0 0 Z " fill="#3E3E3F" transform="translate(191,56)"/>
<path d="M0 0 C1 1 1 1 1.0625 4.0625 C1.041875 5.031875 1.02125 6.00125 1 7 C0.01 7.33 -0.98 7.66 -2 8 C-2.33 8.99 -2.66 9.98 -3 11 C-4.99954746 11.04254356 -7.00041636 11.04080783 -9 11 C-10 10 -10 10 -10.375 6.125 C-10.34765625 3.94921875 -10.34765625 3.94921875 -10 2 C-6.66372104 -1.14563445 -4.28804287 -1.42934762 0 0 Z " fill="#D1D1D1" transform="translate(24,166)"/>
<path d="M0 0 C0 0.66 0 1.32 0 2 C1.32 2 2.64 2 4 2 C4 3.32 4 4.64 4 6 C1.54159395 6.02691685 -0.91651882 6.04679802 -3.375 6.0625 C-4.07367187 6.07087891 -4.77234375 6.07925781 -5.4921875 6.08789062 C-10.7734375 6.11328125 -10.7734375 6.11328125 -13 5 C-13 4.34 -13 3.68 -13 3 C-13.66 3 -14.32 3 -15 3 C-15.33 3.99 -15.66 4.98 -16 6 C-16.33 5.67 -16.66 5.34 -17 5 C-17.639375 5.185625 -18.27875 5.37125 -18.9375 5.5625 C-19.618125 5.706875 -20.29875 5.85125 -21 6 C-21.66 5.34 -22.32 4.68 -23 4 C-23.66 4.66 -24.32 5.32 -25 6 C-25.66 5.67 -26.32 5.34 -27 5 C-27 3.68 -27 2.36 -27 1 C-26.33613281 1.08378906 -25.67226563 1.16757813 -24.98828125 1.25390625 C-18.45640278 2.01994754 -18.45640278 2.01994754 -12 1 C-11.34 1 -10.68 1 -10 1 C-9.67 1.99 -9.34 2.98 -9 4 C-8.67 3.34 -8.34 2.68 -8 2 C-2.77777778 0 -2.77777778 0 0 0 Z " fill="#979797" transform="translate(761,104)"/>
<path d="M0 0 C1.5 1.0625 1.5 1.0625 3 3 C3.65341537 7.41055377 3.51318284 9.2906002 0.875 12.9375 C-2 15 -2 15 -5.125 15.5 C-8.19735411 14.96567755 -9.16115216 14.45179712 -11 12 C-9.02 11.34 -7.04 10.68 -5 10 C-4.67 11.32 -4.34 12.64 -4 14 C-4 12.35 -4 10.7 -4 9 C-6.31 9 -8.62 9 -11 9 C-10.34 7.02 -9.68 5.04 -9 3 C-8.34 3 -7.68 3 -7 3 C-6.67 3.66 -6.34 4.32 -6 5 C-5.34 4.34 -4.68 3.68 -4 3 C-4 4.65 -4 6.3 -4 8 C-3.34 8 -2.68 8 -2 8 C-2 6.35 -2 4.7 -2 3 C-1.34 2.67 -0.68 2.34 0 2 C0 1.34 0 0.68 0 0 Z " fill="#161519" transform="translate(780,11)"/>
<path d="M0 0 C3.60776821 0.43293218 6.86416718 0.9538681 10.3125 2.125 C12.93304077 3.32603995 12.93304077 3.32603995 15 2 C15 3.65 15 5.3 15 7 C16.32 6.01 17.64 5.02 19 4 C18.67 5.32 18.34 6.64 18 8 C17.01 8 16.02 8 15 8 C15 8.66 15 9.32 15 10 C14.34 10 13.68 10 13 10 C13 9.34 13 8.68 13 8 C10.03 8 7.06 8 4 8 C4 7.34 4 6.68 4 6 C3.34 6 2.68 6 2 6 C2 6.66 2 7.32 2 8 C1.34 8 0.68 8 0 8 C0 5.36 0 2.72 0 0 Z " fill="#707171" transform="translate(65,13)"/>
<path d="M0 0 C5.625 -0.25 5.625 -0.25 9 2 C9.29296875 4.3828125 9.29296875 4.3828125 9.1875 7.125 C9.16042969 8.03507813 9.13335937 8.94515625 9.10546875 9.8828125 C9.07066406 10.58148438 9.03585938 11.28015625 9 12 C2.84765625 12.09765625 2.84765625 12.09765625 1 12 C0 11 0 11 -0.09765625 8.49609375 C-0.08605469 7.48675781 -0.07445312 6.47742188 -0.0625 5.4375 C-0.05347656 4.42558594 -0.04445313 3.41367188 -0.03515625 2.37109375 C-0.02355469 1.58863281 -0.01195312 0.80617187 0 0 Z " fill="#F3F3F3" transform="translate(15,141)"/>
<path d="M0 0 C6.875 1.875 6.875 1.875 8 3 C7.8125 6.4375 7.8125 6.4375 7 10 C4.80985106 11.81253705 3.68815747 12.04047985 0.875 11.875 C-1 11 -1 11 -2.3125 9.25 C-3.17403075 6.43044481 -2.88185116 4.79252868 -2 2 C-1.34 1.34 -0.68 0.68 0 0 Z " fill="#D0D0D0" transform="translate(17,249)"/>
<path d="M0 0 C0.9075 0.165 1.815 0.33 2.75 0.5 C10.80858454 1.64422093 18.98229382 1.23349326 27 0 C27 1.98 27 3.96 27 6 C24.525 5.505 24.525 5.505 22 5 C22 4.01 22 3.02 22 2 C21.34 2 20.68 2 20 2 C19.67 2.99 19.34 3.98 19 5 C17.68 5 16.36 5 15 5 C15 4.01 15 3.02 15 2 C14.34 2 13.68 2 13 2 C12.67 2.99 12.34 3.98 12 5 C12 4.01 12 3.02 12 2 C11.34 2 10.68 2 10 2 C9.67 2.99 9.34 3.98 9 5 C5.58729758 6.51675663 2.55830874 5.72783588 -1 5 C-0.67 3.35 -0.34 1.7 0 0 Z " fill="#BBAED7" transform="translate(356,206)"/>
<path d="M0 0 C0 3.96 0 7.92 0 12 C-1.32 11.67 -2.64 11.34 -4 11 C-5.32 11.33 -6.64 11.66 -8 12 C-8.33 9.03 -8.66 6.06 -9 3 C-9.66 3 -10.32 3 -11 3 C-11 2.34 -11 1.68 -11 1 C-7.57067929 -0.71466036 -3.78283935 -0.05404056 0 0 Z " fill="#EBECEF" transform="translate(215,183)"/>
<path d="M0 0 C2.6015625 -0.29296875 2.6015625 -0.29296875 5.625 -0.1875 C7.12933594 -0.14689453 7.12933594 -0.14689453 8.6640625 -0.10546875 C9.43492187 -0.07066406 10.20578125 -0.03585938 11 0 C10.34 3.3 9.68 6.6 9 10 C7.02 10 5.04 10 3 10 C3.33 8.35 3.66 6.7 4 5 C3.01 5 2.02 5 1 5 C0.67 6.65 0.34 8.3 0 10 C-0.66 10 -1.32 10 -2 10 C-2.25 3.375 -2.25 3.375 0 0 Z " fill="#AAAAAA" transform="translate(508,102)"/>
<path d="M0 0 C3.375 -0.125 3.375 -0.125 7 0 C9 2 9 2 9.1953125 4.1640625 C9.13020833 6.44270833 9.06510417 8.72135417 9 11 C6.03 11 3.06 11 0 11 C0 7.37 0 3.74 0 0 Z " fill="#C9C9C9" transform="translate(15,189)"/>
<path d="M0 0 C0.33 0.66 0.66 1.32 1 2 C2.62490954 2.02698189 4.24994633 2.04638757 5.875 2.0625 C6.77992188 2.07410156 7.68484375 2.08570313 8.6171875 2.09765625 C11.0168585 2.16249257 11.0168585 2.16249257 13 1 C13 1.66 13 2.32 13 3 C14.11375 2.835 15.2275 2.67 16.375 2.5 C20 2 20 2 22 2 C21.67 3.98 21.34 5.96 21 8 C20.34 8 19.68 8 19 8 C18.67 7.34 18.34 6.68 18 6 C17.2575 6.165 16.515 6.33 15.75 6.5 C12.14256432 7.1558974 9.49117605 7.16372535 6 6 C6 5.34 6 4.68 6 4 C5.34 4 4.68 4 4 4 C3.67 4.66 3.34 5.32 3 6 C2.34 6 1.68 6 1 6 C0.67 6.33 0.34 6.66 0 7 C-1.32 7 -2.64 7 -4 7 C-4 5.02 -4 3.04 -4 1 C-2 0 -2 0 0 0 Z " fill="#B7B7B9" transform="translate(227,166)"/>
<path d="M0 0 C0.66 0 1.32 0 2 0 C2.33 0.99 2.66 1.98 3 3 C3.66 2.34 4.32 1.68 5 1 C5.12375 1.639375 5.2475 2.27875 5.375 2.9375 C5.684375 3.9584375 5.684375 3.9584375 6 5 C6.66 5.33 7.32 5.66 8 6 C8 4.02 8 2.04 8 0 C8.66 0 9.32 0 10 0 C10.33 1.65 10.66 3.3 11 5 C13.51083114 3.74458443 13.87125446 2.49936512 15 0 C15.37253991 3.91166907 15.0848492 5.83636225 13.25 9.375 C12.5075 10.24125 11.765 11.1075 11 12 C9.68 12 8.36 12 7 12 C7.33 10.68 7.66 9.36 8 8 C7.38125 8.185625 6.7625 8.37125 6.125 8.5625 C4 9 4 9 2 8 C2 7.34 2 6.68 2 6 C0.68 6.33 -0.64 6.66 -2 7 C-1.34 4.69 -0.68 2.38 0 0 Z " fill="#222225" transform="translate(210,110)"/>
<path d="M0 0 C-0.66 3.3 -1.32 6.6 -2 10 C-4.97 10 -7.94 10 -11 10 C-11.8125 6.75 -11.8125 6.75 -12 3 C-8.34979223 -1.56275971 -5.43275197 -1.27829458 0 0 Z " fill="#E8DAF6" transform="translate(26,58)"/>
<path d="M0 0 C5.66666667 0 11.33333333 0 17 0 C17 2.31 17 4.62 17 7 C16.34 7 15.68 7 15 7 C15 5.35 15 3.7 15 2 C14.34 2 13.68 2 13 2 C13 3.65 13 5.3 13 7 C12.34 7 11.68 7 11 7 C11 5.35 11 3.7 11 2 C10.34 2 9.68 2 9 2 C9 3.65 9 5.3 9 7 C5.7 7 2.4 7 -1 7 C-0.67 4.69 -0.34 2.38 0 0 Z " fill="#444444" transform="translate(520,105)"/>
<path d="M0 0 C1.32 0.33 2.64 0.66 4 1 C3.34 1 2.68 1 2 1 C2.33 1.99 2.66 2.98 3 4 C3.66 4.33 4.32 4.66 5 5 C5 4.01 5 3.02 5 2 C8.63 2 12.26 2 16 2 C16.33 1.34 16.66 0.68 17 0 C18.65 0.66 20.3 1.32 22 2 C22 3.32 22 4.64 22 6 C19.03 6 16.06 6 13 6 C12.67 6.66 12.34 7.32 12 8 C11.13375 7.67 10.2675 7.34 9.375 7 C6.04281725 6.01268659 3.44840462 5.83579026 0 6 C0 4.02 0 2.04 0 0 Z " fill="#C0BFC4" transform="translate(13,96)"/>
<path d="M0 0 C0.66 0.33 1.32 0.66 2 1 C3.87056791 1.2275015 5.74685958 1.40962811 7.625 1.5625 C8.62789062 1.64628906 9.63078125 1.73007813 10.6640625 1.81640625 C11.43492187 1.87699219 12.20578125 1.93757812 13 2 C12.67 3.32 12.34 4.64 12 6 C9.20880221 6.22114415 6.4178788 6.42743301 3.625 6.625 C2.8309375 6.68945312 2.036875 6.75390625 1.21875 6.8203125 C-0.85028224 6.96058587 -2.92625536 6.98758237 -5 7 C-5.66 6.34 -6.32 5.68 -7 5 C-6.75 2.4375 -6.75 2.4375 -6 0 C-3.4832097 -1.25839515 -2.62168527 -0.81927665 0 0 Z " fill="#F0E3D6" transform="translate(513,205)"/>
<path d="M0 0 C0.69480469 0.16371094 1.38960937 0.32742187 2.10546875 0.49609375 C5.2352816 1.04095996 8.13798083 1.09738483 11.3125 1.0625 C12.38113281 1.05347656 13.44976562 1.04445312 14.55078125 1.03515625 C15.76314453 1.01775391 15.76314453 1.01775391 17 1 C17 2.65 17 4.3 17 6 C10.4 6 3.8 6 -3 6 C-3 4.35 -3 2.7 -3 1 C-2.67 2.32 -2.34 3.64 -2 5 C-1.34 5 -0.68 5 0 5 C0 3.35 0 1.7 0 0 Z " fill="#A7A7A7" transform="translate(51,252)"/>
<path d="M0 0 C0.66 0 1.32 0 2 0 C2 0.66 2 1.32 2 2 C3.670625 1.9690625 3.670625 1.9690625 5.375 1.9375 C9 2 9 2 11 3 C11 4.32 11 5.64 11 7 C7.86501708 8.85776765 5.62528568 9.20140476 2 9 C2 8.34 2 7.68 2 7 C-0.31 7 -2.62 7 -5 7 C-5 5.33333333 -5 3.66666667 -5 2 C-3.35 2 -1.7 2 0 2 C0 1.34 0 0.68 0 0 Z " fill="#A5A5A5" transform="translate(436,109)"/>
<path d="M0 0 C0.33 1.32 0.66 2.64 1 4 C0.01 4.66 -0.98 5.32 -2 6 C-2.99 5.67 -3.98 5.34 -5 5 C-5 3.68 -5 2.36 -5 1 C-5.99 1.33 -6.98 1.66 -8 2 C-7.34 2.66 -6.68 3.32 -6 4 C-8.64 4.33 -11.28 4.66 -14 5 C-14 3.68 -14 2.36 -14 1 C-14.66 1 -15.32 1 -16 1 C-16.33 1.99 -16.66 2.98 -17 4 C-19.33333333 4 -21.66666667 4 -24 4 C-24 2.68 -24 1.36 -24 0 C-22.96359375 0.01160156 -21.9271875 0.02320313 -20.859375 0.03515625 C-19.48958514 0.04453837 -18.11979332 0.05363812 -16.75 0.0625 C-15.72712891 0.07506836 -15.72712891 0.07506836 -14.68359375 0.08789062 C-9.43990921 0.1133454 -5.10697017 -1.27674254 0 0 Z " fill="#B8B8B8" transform="translate(414,168)"/>
<path d="M0 0 C1.32 0 2.64 0 4 0 C4 0.66 4 1.32 4 2 C4.66 2 5.32 2 6 2 C6 1.34 6 0.68 6 0 C8.64 0 11.28 0 14 0 C14 0.66 14 1.32 14 2 C14.99 2 15.98 2 17 2 C16.67 3.32 16.34 4.64 16 6 C12.7 6 9.4 6 6 6 C6 5.34 6 4.68 6 4 C5.34 4 4.68 4 4 4 C4 4.66 4 5.32 4 6 C2.68 6 1.36 6 0 6 C0 4.02 0 2.04 0 0 Z " fill="#AFAFAF" transform="translate(753,117)"/>
<path d="M0 0 C2.46800047 1.15173355 4.04783565 2.04783565 6 4 C6.56338028 9.29577465 6.56338028 9.29577465 4.5 11.875 C4.005 12.24625 3.51 12.6175 3 13 C2.67 10.69 2.34 8.38 2 6 C1.34 6 0.68 6 0 6 C0 7.98 0 9.96 0 12 C-1.65 11.67 -3.3 11.34 -5 11 C-5.33 9.35 -5.66 7.7 -6 6 C-5.01 5.67 -4.02 5.34 -3 5 C-2.67 4.34 -2.34 3.68 -2 3 C-1.34 3 -0.68 3 0 3 C0 2.01 0 1.02 0 0 Z " fill="#19181E" transform="translate(218,104)"/>
<path d="M0 0 C0.66 0 1.32 0 2 0 C2.33 0.99 2.66 1.98 3 3 C4.051875 2.7215625 4.051875 2.7215625 5.125 2.4375 C8.33888698 1.94843024 10.83560336 2.33768442 14 3 C13.34 5.31 12.68 7.62 12 10 C10.68 10 9.36 10 8 10 C8 9.34 8 8.68 8 8 C4.71303767 7.20046862 3.28976808 6.90341064 0 8 C0 5.36 0 2.72 0 0 Z " fill="#AEAEAE" transform="translate(36,13)"/>
<path d="M0 0 C0.66 0 1.32 0 2 0 C2 3.63 2 7.26 2 11 C-0.33294775 11.04241723 -2.66702567 11.04092937 -5 11 C-6 10 -6 10 -6.0625 7.4375 C-6.041875 6.633125 -6.02125 5.82875 -6 5 C-6.99 5 -7.98 5 -9 5 C-9 7.31 -9 9.62 -9 12 C-9.99 12 -10.98 12 -12 12 C-12 9.03 -12 6.06 -12 3 C-8.37 3 -4.74 3 -1 3 C-1.66 3.66 -2.32 4.32 -3 5 C-3 6.32 -3 7.64 -3 9 C-2.34 9 -1.68 9 -1 9 C-0.67 6.03 -0.34 3.06 0 0 Z " fill="#3C3C3C" transform="translate(270,56)"/>
<path d="M0 0 C2.31243792 -0.02685412 4.6249627 -0.04632841 6.9375 -0.0625 C8.22527344 -0.07410156 9.51304688 -0.08570313 10.83984375 -0.09765625 C14 0 14 0 15 1 C15.04063832 2.66617115 15.042721 4.33388095 15 6 C13.68 6 12.36 6 11 6 C11 6.66 11 7.32 11 8 C10.34 8 9.68 8 9 8 C9 7.34 9 6.68 9 6 C8.34 6 7.68 6 7 6 C7 4.68 7 3.36 7 2 C6.34 2 5.68 2 5 2 C5 3.32 5 4.64 5 6 C3.35 6 1.7 6 0 6 C0 4.02 0 2.04 0 0 Z " fill="#5D5D5D" transform="translate(20,15)"/>
<path d="M0 0 C1.32 0 2.64 0 4 0 C4 0.66 4 1.32 4 2 C4.99 1.67 5.98 1.34 7 1 C9 6.625 9 6.625 9 10 C5.37 10 1.74 10 -2 10 C-2 6 -2 6 0 4 C0.66 3.67 1.32 3.34 2 3 C2 2.34 2 1.68 2 1 C1.34 0.67 0.68 0.34 0 0 Z " fill="#D5D5D5" transform="translate(16,118)"/>
<path d="M0 0 C0.99 -0.33 1.98 -0.66 3 -1 C4.39439664 -1.06665376 5.79169875 -1.08538199 7.1875 -1.0625 C9.0746875 -1.0315625 9.0746875 -1.0315625 11 -1 C11 0.65 11 2.3 11 4 C8 3 8 3 7 2 C6.67 2.66 6.34 3.32 6 4 C-2.16568047 4.13609467 -2.16568047 4.13609467 -6 3 C-6.99 3 -7.98 3 -9 3 C-9 2.01 -9 1.02 -9 0 C-5.33738715 -2.4417419 -3.87844681 -1.69060502 0 0 Z " fill="#9B9B9B" transform="translate(100,170)"/>
<path d="M0 0 C6.6 0 13.2 0 20 0 C20.33 1.32 20.66 2.64 21 4 C20.01 4.33 19.02 4.66 18 5 C17.34 4.01 16.68 3.02 16 2 C16 2.66 16 3.32 16 4 C13.03 4 10.06 4 7 4 C6.67 4.66 6.34 5.32 6 6 C4.02 5.34 2.04 4.68 0 4 C0 2.68 0 1.36 0 0 Z " fill="#A2A2A2" transform="translate(66,122)"/>
<path d="M0 0 C1.051875 0.5878125 1.051875 0.5878125 2.125 1.1875 C4.44995277 1.57499213 6.78351268 1.91732839 9.125 2.1875 C8.795 3.5075 8.465 4.8275 8.125 6.1875 C5.23265685 7.01388376 3.23757569 7.1875 0.125 7.1875 C-0.885625 7.39375 -1.89625 7.6 -2.9375 7.8125 C-5.875 8.1875 -5.875 8.1875 -8.875 6.1875 C-7.225 6.1875 -5.575 6.1875 -3.875 6.1875 C-4.6513932 3.1129644 -4.6513932 3.1129644 -6.875 1.1875 C-2.41071429 -1.04464286 -2.41071429 -1.04464286 0 0 Z " fill="#FBECEA" transform="translate(723.875,204.8125)"/>
<path d="M0 0 C0.66 0 1.32 0 2 0 C2 0.66 2 1.32 2 2 C5.3 2.33 8.6 2.66 12 3 C12 4.32 12 5.64 12 7 C9.52076199 7.02685095 7.0418116 7.04676547 4.5625 7.0625 C3.85544922 7.07087891 3.14839844 7.07925781 2.41992188 7.08789062 C0.61306441 7.09653588 -1.19387603 7.05220011 -3 7 C-4 6 -4 6 -4.0625 3.4375 C-4.041875 2.633125 -4.02125 1.82875 -4 1 C-3.34 1 -2.68 1 -2 1 C-2 2.65 -2 4.3 -2 6 C-1.34 6 -0.68 6 0 6 C0 4.02 0 2.04 0 0 Z " fill="#C0C0C0" transform="translate(17,227)"/>
<path d="M0 0 C0.66 0 1.32 0 2 0 C2.66 0.66 3.32 1.32 4 2 C4.680625 1.649375 5.36125 1.29875 6.0625 0.9375 C9.74317188 -0.23718252 12.22610987 0.32609105 16 1 C17.66628955 1.03545297 19.33409803 1.05048188 21 1 C21 2.32 21 3.64 21 5 C17.04 5 13.08 5 9 5 C9 4.01 9 3.02 9 2 C8.01 2 7.02 2 6 2 C6 2.99 6 3.98 6 5 C3.69 5 1.38 5 -1 5 C-0.67 3.35 -0.34 1.7 0 0 Z " fill="#BDBDBD" transform="translate(356,167)"/>
<path d="M0 0 C0.99 0 1.98 0 3 0 C3.12375 1.11375 3.2475 2.2275 3.375 3.375 C3.6465813 7.03103677 3.6465813 7.03103677 6 9 C6 9.99 6 10.98 6 12 C3.03 12 0.06 12 -3 12 C-2.67 10.35 -2.34 8.7 -2 7 C-1.34 7 -0.68 7 0 7 C-0.185625 6.030625 -0.37125 5.06125 -0.5625 4.0625 C-0.706875 3.051875 -0.85125 2.04125 -1 1 C-0.67 0.67 -0.34 0.34 0 0 Z " fill="#D9D9D9" transform="translate(18,272)"/>
<path d="M0 0 C0 1.65 0 3.3 0 5 C-1.72521463 5.39278091 -3.45546248 5.76349151 -5.1875 6.125 C-6.63189453 6.43824219 -6.63189453 6.43824219 -8.10546875 6.7578125 C-11.34552253 7.02891012 -13.11546285 6.42381175 -16 5 C-15.67 3.68 -15.34 2.36 -15 1 C-14.22914063 1.01160156 -13.45828125 1.02320313 -12.6640625 1.03515625 C-11.15972656 1.04869141 -11.15972656 1.04869141 -9.625 1.0625 C-8.12839844 1.07990234 -8.12839844 1.07990234 -6.6015625 1.09765625 C-4.04433149 1.00166409 -2.49131904 0 0 0 Z " fill="#B5D6C4" transform="translate(259,206)"/>
<path d="M0 0 C0.33 1.32 0.66 2.64 1 4 C-3 4 -7 4 -11 4 C-11 3.01 -11 2.02 -11 1 C-11.99 1 -12.98 1 -14 1 C-14 1.66 -14 2.32 -14 3 C-13.34 3 -12.68 3 -12 3 C-12 3.66 -12 4.32 -12 5 C-14.64 4.67 -17.28 4.34 -20 4 C-19.67 2.68 -19.34 1.36 -19 0 C-12.46837378 -1.10914408 -6.56492112 -0.78441153 0 0 Z " fill="#C0B3DD" transform="translate(410,207)"/>
<path d="M0 0 C4.29 0.33 8.58 0.66 13 1 C13.33 2.32 13.66 3.64 14 5 C13.01 5 12.02 5 11 5 C10.67 5.66 10.34 6.32 10 7 C9.46375 6.835 8.9275 6.67 8.375 6.5 C5.54113991 5.90339788 2.8880194 5.9343632 0 6 C0 4.02 0 2.04 0 0 Z " fill="#E3C5C5" transform="translate(658,206)"/>
<path d="M0 0 C1.32 0 2.64 0 4 0 C4 0.66 4 1.32 4 2 C4.66 2 5.32 2 6 2 C6 2.66 6 3.32 6 4 C5.01 4 4.02 4 3 4 C3.99 4.33 4.98 4.66 6 5 C6 6.98 6 8.96 6 11 C5.01 11 4.02 11 3 11 C3 10.34 3 9.68 3 9 C1.02 9 -0.96 9 -3 9 C-2.44271087 5.65626525 -1.64826111 2.96687001 0 0 Z " fill="#F1EDFB" transform="translate(146,248)"/>
<path d="M0 0 C0.8353125 0.10828125 0.8353125 0.10828125 1.6875 0.21875 C6.8359445 0.84491217 11.81463038 1.09427945 17 1 C16 4 16 4 13 6 C10.51953125 6.1953125 10.51953125 6.1953125 7.8125 6.125 C6.91144531 6.10695312 6.01039063 6.08890625 5.08203125 6.0703125 C4.39496094 6.04710937 3.70789063 6.02390625 3 6 C2.34 4.35 1.68 2.7 1 1 C0.67 2.32 0.34 3.64 0 5 C0 3.35 0 1.7 0 0 Z " fill="#C2C2C4" transform="translate(673,167)"/>
<path d="M0 0 C0.33 0.66 0.66 1.32 1 2 C1.66 2.33 2.32 2.66 3 3 C2.01 3.495 2.01 3.495 1 4 C0.34227572 7.02934491 0.34227572 7.02934491 0 10 C-0.66 9.01 -1.32 8.02 -2 7 C-4.31 8.65 -6.62 10.3 -9 12 C-9.52311757 6.76882431 -9.52311757 6.76882431 -9 4 C-5.88216275 1.22858911 -4.20153496 0 0 0 Z " fill="#F2EEF4" transform="translate(33,56)"/>
<path d="M0 0 C0.99 0.185625 1.98 0.37125 3 0.5625 C7.17087678 1.17661683 10.85034269 0.65520905 15 0 C15 1.65 15 3.3 15 5 C14.2575 4.979375 13.515 4.95875 12.75 4.9375 C10.1041089 4.87981907 10.1041089 4.87981907 8.0625 5.5625 C5.21279201 6.16698351 2.82569444 5.57798295 0 5 C0 3.35 0 1.7 0 0 Z " fill="#BAD6C8" transform="translate(205,206)"/>
<path d="M0 0 C2.97 0 5.94 0 9 0 C9 2.31 9 4.62 9 7 C6.03 7 3.06 7 0 7 C0 4.69 0 2.38 0 0 Z " fill="#BABABA" transform="translate(701,103)"/>
<path d="M0 0 C0.625 3.0625 0.625 3.0625 1 6 C0.01 6 -0.98 6 -2 6 C-2 4.68 -2 3.36 -2 2 C-2.99 2 -3.98 2 -5 2 C-5 3.32 -5 4.64 -5 6 C-7.31 6 -9.62 6 -12 6 C-12.33 4.35 -12.66 2.7 -13 1 C-10.92446352 0.4465236 -9.15634036 0 -7 0 C-6.175 -0.185625 -5.35 -0.37125 -4.5 -0.5625 C-2 -1 -2 -1 0 0 Z " fill="#6D6D6D" transform="translate(98,15)"/>
<path d="M0 0 C0.33 0 0.66 0 1 0 C1 1.98 1 3.96 1 6 C0.34 6 -0.32 6 -1 6 C-1 6.66 -1 7.32 -1 8 C-7.15234375 7.4140625 -7.15234375 7.4140625 -9 7 C-9.33 6.34 -9.66 5.68 -10 5 C-10.99 5.495 -10.99 5.495 -12 6 C-12 4.68 -12 3.36 -12 2 C-8.04 2 -4.08 2 0 2 C0 1.34 0 0.68 0 0 Z " fill="#C1E5D3" transform="translate(235,205)"/>
<path d="M0 0 C5.28 0 10.56 0 16 0 C16 1.32 16 2.64 16 4 C14.948125 3.979375 13.89625 3.95875 12.8125 3.9375 C9.16446237 3.87731005 9.16446237 3.87731005 6.3125 4.5625 C3.83606542 5.03101465 2.36684269 4.78894756 0 4 C0 2.68 0 1.36 0 0 Z " fill="#E3D0B4" transform="translate(575,207)"/>
<path d="M0 0 C1.1446875 0.2475 1.1446875 0.2475 2.3125 0.5 C5.00856207 1.00159294 6.44020291 0.8532657 9 0 C10.0625 1.875 10.0625 1.875 11 4 C10.67 4.66 10.34 5.32 10 6 C6.37 6 2.74 6 -1 6 C-1 1 -1 1 0 0 Z " fill="#76757A" transform="translate(52,15)"/>
<path d="M0 0 C0 1.65 0 3.3 0 5 C-4.95 5 -9.9 5 -15 5 C-15 3.68 -15 2.36 -15 1 C-9.9752761 0.37470103 -5.07471573 -0.13012092 0 0 Z " fill="#BFBEC3" transform="translate(79,229)"/>
<path d="M0 0 C1.99954746 -0.04254356 4.00041636 -0.04080783 6 0 C7 1 7 1 7.09765625 2.84765625 C7.04882812 5.92382812 7.04882812 5.92382812 7 9 C4.69 9 2.38 9 0 9 C-0.33 7.35 -0.66 5.7 -1 4 C0.65 3.67 2.3 3.34 4 3 C4 2.34 4 1.68 4 1 C2.35 1.33 0.7 1.66 -1 2 C-0.67 1.34 -0.34 0.68 0 0 Z " fill="#444444" transform="translate(250,59)"/>
<path d="M0 0 C1.99954746 -0.04254356 4.00041636 -0.04080783 6 0 C7 1 7 1 7.09765625 2.84765625 C7.04882812 5.92382812 7.04882812 5.92382812 7 9 C3.37673261 10.2077558 2.35853631 9.54311128 -1 8 C-1 6.68 -1 5.36 -1 4 C0.65 3.67 2.3 3.34 4 3 C4 2.34 4 1.68 4 1 C2.68 1.33 1.36 1.66 0 2 C0 1.34 0 0.68 0 0 Z " fill="#4E4C4D" transform="translate(203,59)"/>
<path d="M0 0 C-0.33 1.65 -0.66 3.3 -1 5 C0.98 4.67 2.96 4.34 5 4 C5 5.65 5 7.3 5 9 C1.04 9 -2.92 9 -7 9 C-7 7.02 -7 5.04 -7 3 C-6.67 3 -6.34 3 -6 3 C-6 4.65 -6 6.3 -6 8 C-5.01 8 -4.02 8 -3 8 C-3.33 6.02 -3.66 4.04 -4 2 C-5.32 1.67 -6.64 1.34 -8 1 C-5.29120665 -0.35439668 -2.99066732 -0.06501451 0 0 Z " fill="#C9C9C9" transform="translate(40,249)"/>
<path d="M0 0 C3.94727588 -0.17942163 6.5980513 -0.09350689 10 2 C10 3.65 10 5.3 10 7 C8.52093108 7.02689216 7.04172517 7.04634621 5.5625 7.0625 C4.32693359 7.07990234 4.32693359 7.07990234 3.06640625 7.09765625 C1 7 1 7 0 6 C-0.04080783 4.00041636 -0.04254356 1.99954746 0 0 Z " fill="#C2C2C2" transform="translate(32,191)"/>
<path d="M0 0 C6.39534884 0.69767442 6.39534884 0.69767442 9 2 C10.32 2 11.64 2 13 2 C12.67 3.32 12.34 4.64 12 6 C12 5.01 12 4.02 12 3 C11.34 3 10.68 3 10 3 C9.67 3.99 9.34 4.98 9 6 C5.7 6 2.4 6 -1 6 C-1 1 -1 1 0 0 Z " fill="#C3C3C3" transform="translate(86,144)"/>
<path d="M0 0 C5.61 0 11.22 0 17 0 C16.01 0.495 16.01 0.495 15 1 C15 1.66 15 2.32 15 3 C15.66 3.33 16.32 3.66 17 4 C11.06 4 5.12 4 -1 4 C-0.67 2.68 -0.34 1.36 0 0 Z " fill="#DCAAAC" transform="translate(749,207)"/>
<path d="M0 0 C0.66 0 1.32 0 2 0 C2 1.98 2 3.96 2 6 C-3.28 6 -8.56 6 -14 6 C-13.67 4.68 -13.34 3.36 -13 2 C-12.67 2.66 -12.34 3.32 -12 4 C-11.62875 3.505 -11.2575 3.01 -10.875 2.5 C-8.22454058 0.37963246 -6.30439359 0.71877501 -3 1 C-2.34 1.33 -1.68 1.66 -1 2 C-0.67 1.34 -0.34 0.68 0 0 Z " fill="#BBB3D6" transform="translate(70,60)"/>
<path d="M0 0 C1.05960938 0.00676758 1.05960938 0.00676758 2.140625 0.01367188 C3.88545275 0.02546125 5.630237 0.04339676 7.375 0.0625 C7.705 1.7125 8.035 3.3625 8.375 5.0625 C6.75081255 5.14340971 5.12548255 5.20164995 3.5 5.25 C2.59507813 5.28480469 1.69015625 5.31960937 0.7578125 5.35546875 C-0.42167969 5.21044922 -0.42167969 5.21044922 -1.625 5.0625 C-2.285 4.0725 -2.945 3.0825 -3.625 2.0625 C-5.605 2.3925 -7.585 2.7225 -9.625 3.0625 C-9.625 2.4025 -9.625 1.7425 -9.625 1.0625 C-6.55966836 -0.47016582 -3.35745728 -0.04026471 0 0 Z " fill="#B3B3B3" transform="translate(70.625,168.9375)"/>
<path d="M0 0 C1.98 0 3.96 0 6 0 C6.33 0.99 6.66 1.98 7 3 C7.66 3.66 8.32 4.32 9 5 C8.01 5.33 7.02 5.66 6 6 C5.67 6.99 5.34 7.98 5 9 C3.35 9 1.7 9 0 9 C0 6.03 0 3.06 0 0 Z " fill="#D9D9D9" transform="translate(418,109)"/>
<path d="M0 0 C0.33 0.66 0.66 1.32 1 2 C1.99 2 2.98 2 4 2 C5.125 6.75 5.125 6.75 4 9 C1.69 9 -0.62 9 -3 9 C-3.1875 5.625 -3.1875 5.625 -3 2 C-2.01 1.34 -1.02 0.68 0 0 Z " fill="#CCCCCE" transform="translate(35,225)"/>
<path d="M0 0 C5.33333333 0 10.66666667 0 16 0 C16 1.32 16 2.64 16 4 C15.34 4 14.68 4 14 4 C14 3.34 14 2.68 14 2 C13.34 2 12.68 2 12 2 C12 2.66 12 3.32 12 4 C5.25 4.125 5.25 4.125 3 3 C2.67 3.99 2.34 4.98 2 6 C1.01 5.34 0.02 4.68 -1 4 C-0.67 2.68 -0.34 1.36 0 0 Z " fill="#A4C7B3" transform="translate(283,207)"/>
<path d="M0 0 C4.62 0 9.24 0 14 0 C14 1.32 14 2.64 14 4 C13.01 4 12.02 4 11 4 C11 3.01 11 2.02 11 1 C10.34 1 9.68 1 9 1 C9 1.99 9 2.98 9 4 C5.7 4 2.4 4 -1 4 C-0.67 2.68 -0.34 1.36 0 0 Z " fill="#DEBFBE" transform="translate(688,207)"/>
<path d="M0 0 C1.98 0.99 1.98 0.99 4 2 C4 1.34 4 0.68 4 0 C4.94875 0.165 5.8975 0.33 6.875 0.5 C9.80168901 1.0526635 9.80168901 1.0526635 12 1 C12 2.65 12 4.3 12 6 C8.04 6 4.08 6 0 6 C0 4.02 0 2.04 0 0 Z " fill="#C2C2C2" transform="translate(33,144)"/>
<path d="M0 0 C4.71403788 0.47939368 8.66579301 0.96834048 13 3 C13 3.99 13 4.98 13 6 C12.01 5.67 11.02 5.34 10 5 C9.67 5.33 9.34 5.66 9 6 C7.48071962 6.07179964 5.95832518 6.08392007 4.4375 6.0625 C3.61121094 6.05347656 2.78492188 6.04445313 1.93359375 6.03515625 C1.29550781 6.02355469 0.65742187 6.01195313 0 6 C0 4.02 0 2.04 0 0 Z " fill="#B7A5DB" transform="translate(33,60)"/>
<path d="M0 0 C1.32 0.66 2.64 1.32 4 2 C4 4.31 4 6.62 4 9 C1.36 9 -1.28 9 -4 9 C-4.33 7.68 -4.66 6.36 -5 5 C-4.360625 4.731875 -3.72125 4.46375 -3.0625 4.1875 C-0.66868314 3.11332248 -0.66868314 3.11332248 0 0 Z " fill="#ADADAD" transform="translate(64,273)"/>
<path d="M0 0 C3.4375 0.1875 3.4375 0.1875 4.4375 1.1875 C4.47842937 3.52047433 4.47991723 5.85455225 4.4375 8.1875 C3.4475 8.5175 2.4575 8.8475 1.4375 9.1875 C1.7675 6.8775 2.0975 4.5675 2.4375 2.1875 C0.4575 2.1875 -1.5225 2.1875 -3.5625 2.1875 C-3.5625 3.5075 -3.5625 4.8275 -3.5625 6.1875 C-2.9025 6.1875 -2.2425 6.1875 -1.5625 6.1875 C-1.5625 7.5075 -1.5625 8.8275 -1.5625 10.1875 C-2.5525 10.1875 -3.5425 10.1875 -4.5625 10.1875 C-5.5390625 4.1328125 -5.5390625 4.1328125 -5.5625 2.1875 C-3.5625 0.1875 -3.5625 0.1875 0 0 Z " fill="#B7B7B7" transform="translate(736.5625,114.8125)"/>
<path d="M0 0 C-0.33 0.99 -0.66 1.98 -1 3 C-1.33 3 -1.66 3 -2 3 C-2.33 5.31 -2.66 7.62 -3 10 C-3.33 9.01 -3.66 8.02 -4 7 C-7.51190809 5.77030122 -7.51190809 5.77030122 -11 5 C-11.33 5.99 -11.66 6.98 -12 8 C-12.33 6.35 -12.66 4.7 -13 3 C-4.2 0 -4.2 0 0 0 Z " fill="#F1E9FC" transform="translate(50,56)"/>
<path d="M0 0 C0.78375 0.185625 1.5675 0.37125 2.375 0.5625 C4.97089775 1.25962266 4.97089775 1.25962266 7 0 C7 1.65 7 3.3 7 5 C8.32 4.01 9.64 3.02 11 2 C10.67 3.32 10.34 4.64 10 6 C9.01 6 8.02 6 7 6 C7 6.66 7 7.32 7 8 C6.34 8 5.68 8 5 8 C5 7.34 5 6.68 5 6 C3.35 6 1.7 6 0 6 C-1.125 2.25 -1.125 2.25 0 0 Z " fill="#575756" transform="translate(73,15)"/>
<path d="M0 0 C4.62 0 9.24 0 14 0 C13.67 1.32 13.34 2.64 13 4 C8.33333333 4 3.66666667 4 -1 4 C-0.67 2.68 -0.34 1.36 0 0 Z " fill="#A9C6B5" transform="translate(262,207)"/>
<path d="M0 0 C1.32 0.33 2.64 0.66 4 1 C3.67 1.33 3.34 1.66 3 2 C3.66 2.33 4.32 2.66 5 3 C5 2.34 5 1.68 5 1 C7.64 1 10.28 1 13 1 C13 2.65 13 4.3 13 6 C8.125 5.125 8.125 5.125 7 4 C6.67 4.66 6.34 5.32 6 6 C4.33388095 6.042721 2.66617115 6.04063832 1 6 C0 5 0 5 -0.0625 2.4375 C-0.041875 1.633125 -0.02125 0.82875 0 0 Z " fill="#BFBFBF" transform="translate(538,167)"/>
<path d="M0 0 C2.97 0.33 5.94 0.66 9 1 C9.33 2.65 9.66 4.3 10 6 C6.7 6 3.4 6 0 6 C0 4.02 0 2.04 0 0 Z " fill="#B2B2B2" transform="translate(48,144)"/>
<path d="M0 0 C1.66611905 -0.042721 3.33382885 -0.04063832 5 0 C6 1 6 1 6.25 3.375 C6 6 6 6 4.5 7.8125 C4.005 8.204375 3.51 8.59625 3 9 C4.32 9.33 5.64 9.66 7 10 C7 10.66 7 11.32 7 12 C4.36 12 1.72 12 -1 12 C-0.1875 9.5625 -0.1875 9.5625 1 7 C1.99 6.67 2.98 6.34 4 6 C4 4.68 4 3.36 4 2 C2.35 2.66 0.7 3.32 -1 4 C-0.67 2.68 -0.34 1.36 0 0 Z " fill="#3C3C3B" transform="translate(660,183)"/>
<path d="M0 0 C0.33 0 0.66 0 1 0 C1 1.65 1 3.3 1 5 C1.99 5 2.98 5 4 5 C4 3.35 4 1.7 4 0 C4.66 0 5.32 0 6 0 C6 0.66 6 1.32 6 2 C7.98 1.67 9.96 1.34 12 1 C12 2.65 12 4.3 12 6 C6.06 6.495 6.06 6.495 0 7 C0 4.69 0 2.38 0 0 Z " fill="#B7B7B7" transform="translate(33,120)"/>
<path d="M0 0 C0.721875 0.144375 1.44375 0.28875 2.1875 0.4375 C3.5796875 0.7159375 3.5796875 0.7159375 5 1 C6.66666667 1.33333333 8.33333333 1.66666667 10 2 C9.67 3.32 9.34 4.64 9 6 C4.545 6.495 4.545 6.495 0 7 C0 4.69 0 2.38 0 0 Z " fill="#B9B9B9" transform="translate(48,120)"/>
<path d="M0 0 C1.66611905 -0.042721 3.33382885 -0.04063832 5 0 C6 1 6 1 6.25 3.375 C6 6 6 6 4.5 7.8125 C4.005 8.204375 3.51 8.59625 3 9 C4.32 9.33 5.64 9.66 7 10 C7 10.66 7 11.32 7 12 C4.36 12 1.72 12 -1 12 C-0.60401298 9.12909413 -0.2676157 8.21084873 2.0625 6.375 C2.701875 5.92125 3.34125 5.4675 4 5 C4 4.34 4 3.68 4 3 C3.01 2.67 2.02 2.34 1 2 C1 2.66 1 3.32 1 4 C0.34 4 -0.32 4 -1 4 C-0.67 2.68 -0.34 1.36 0 0 Z " fill="#343435" transform="translate(357,183)"/>
<path d="M0 0 C0.66 0 1.32 0 2 0 C2 0.99 2 1.98 2 3 C2.804375 2.979375 3.60875 2.95875 4.4375 2.9375 C7 3 7 3 8 4 C8.04080783 5.99958364 8.04254356 8.00045254 8 10 C6.35 10.33 4.7 10.66 3 11 C3.66 10.34 4.32 9.68 5 9 C5.6425235 6.93125966 5.6425235 6.93125966 6 5 C4.68 5 3.36 5 2 5 C2 6.98 2 8.96 2 11 C1.34 11 0.68 11 0 11 C0 7.37 0 3.74 0 0 Z " fill="#222222" transform="translate(230,56)"/>
<path d="M0 0 C4.29 0 8.58 0 13 0 C13.33 1.32 13.66 2.64 14 4 C11 5 11 5 8 4 C8 3.01 8 2.02 8 1 C7.01 1 6.02 1 5 1 C5 1.66 5 2.32 5 3 C5.66 3.33 6.32 3.66 7 4 C4.36 4 1.72 4 -1 4 C-0.67 2.68 -0.34 1.36 0 0 Z " fill="#DBC2A7" transform="translate(527,207)"/>
<path d="M0 0 C0 1.65 0 3.3 0 5 C-4.62 5 -9.24 5 -14 5 C-14.33 3.68 -14.66 2.36 -15 1 C-13.84371094 1.01740234 -13.84371094 1.01740234 -12.6640625 1.03515625 C-11.15972656 1.04869141 -11.15972656 1.04869141 -9.625 1.0625 C-8.12839844 1.07990234 -8.12839844 1.07990234 -6.6015625 1.09765625 C-4.04433149 1.00166409 -2.49131904 0 0 0 Z " fill="#B8B8B9" transform="translate(706,167)"/>
<path d="M0 0 C0.99 0.495 0.99 0.495 2 1 C3.71233688 0.9129796 5.42175406 0.75902838 7.125 0.5625 C8.03507812 0.46066406 8.94515625 0.35882813 9.8828125 0.25390625 C10.93082031 0.12822266 10.93082031 0.12822266 12 0 C12.33 0.66 12.66 1.32 13 2 C12.34 2 11.68 2 11 2 C11 2.66 11 3.32 11 4 C11.66 4.33 12.32 4.66 13 5 C8.71 5 4.42 5 0 5 C0 3.35 0 1.7 0 0 Z " fill="#9C9C9C" transform="translate(100,145)"/>
<path d="M0 0 C2.97 0 5.94 0 9 0 C9 1.65 9 3.3 9 5 C7.02 5 5.04 5 3 5 C3 5.66 3 6.32 3 7 C2.01 7.33 1.02 7.66 0 8 C-1.125 2.25 -1.125 2.25 0 0 Z " fill="#EFECFA" transform="translate(138,120)"/>
<path d="M0 0 C0.33 0 0.66 0 1 0 C1 1.98 1 3.96 1 6 C0.29875 5.79375 -0.4025 5.5875 -1.125 5.375 C-4.60186072 4.92149643 -6.77398123 5.72459723 -10 7 C-10.33 5.35 -10.66 3.7 -11 2 C-10.01 2.495 -10.01 2.495 -9 3 C-8.67 2.34 -8.34 1.68 -8 1 C-6.865625 1.020625 -5.73125 1.04125 -4.5625 1.0625 C-1.18424326 1.41577477 -1.18424326 1.41577477 0 0 Z " fill="#C4C3C8" transform="translate(248,117)"/>
<path d="M0 0 C8.57142857 1 8.57142857 1 12 2 C11.67 3.32 11.34 4.64 11 6 C9.68 5.67 8.36 5.34 7 5 C7 4.34 7 3.68 7 3 C6.34 3 5.68 3 5 3 C4.67 3.66 4.34 4.32 4 5 C4.66 5.33 5.32 5.66 6 6 C4.02 6 2.04 6 0 6 C0 4.02 0 2.04 0 0 Z " fill="#7B7C7D" transform="translate(245,105)"/>
<path d="M0 0 C0.33 0 0.66 0 1 0 C1 1.65 1 3.3 1 5 C1.66 5 2.32 5 3 5 C3 3.35 3 1.7 3 0 C6.3 0.66 9.6 1.32 13 2 C13 3.32 13 4.64 13 6 C8.66666667 6 4.33333333 6 0 6 C0 4.02 0 2.04 0 0 Z " fill="#A0A0A0" transform="translate(33,276)"/>
<path d="M0 0 C4 4.625 4 4.625 4 8 C5.32 8.33 6.64 8.66 8 9 C7.34 9 6.68 9 6 9 C5.67 9.66 5.34 10.32 5 11 C2.9375 11.625 2.9375 11.625 1 12 C0.01879536 8.94736336 0.01879536 7.05263664 1 4 C-0.65 4 -2.3 4 -4 4 C-4 3.34 -4 2.68 -4 2 C-2.68 1.34 -1.36 0.68 0 0 Z " fill="#F2F2F2" transform="translate(28,226)"/>
<path d="M0 0 C5.625 -0.25 5.625 -0.25 9 2 C9.29296875 4.3828125 9.29296875 4.3828125 9.1875 7.125 C9.16042969 8.03507813 9.13335937 8.94515625 9.10546875 9.8828125 C9.07066406 10.58148438 9.03585938 11.28015625 9 12 C2.84765625 12.09765625 2.84765625 12.09765625 1 12 C0 11 0 11 -0.09765625 8.49609375 C-0.08605469 7.48675781 -0.07445312 6.47742188 -0.0625 5.4375 C-0.05347656 4.42558594 -0.04445313 3.41367188 -0.03515625 2.37109375 C-0.02355469 1.58863281 -0.01195312 0.80617187 0 0 Z M1 1 C1 4.3 1 7.6 1 11 C3.31 11 5.62 11 8 11 C8 9.02 8 7.04 8 5 C7.01 5 6.02 5 5 5 C4.67 3.68 4.34 2.36 4 1 C3.01 1 2.02 1 1 1 Z " fill="#C8C8C8" transform="translate(15,141)"/>
<path d="M0 0 C0.66 0 1.32 0 2 0 C2.33 0.99 2.66 1.98 3 3 C3.66 2.34 4.32 1.68 5 1 C5.12375 1.639375 5.2475 2.27875 5.375 2.9375 C5.684375 3.9584375 5.684375 3.9584375 6 5 C6.66 5.33 7.32 5.66 8 6 C8 4.02 8 2.04 8 0 C8.66 0 9.32 0 10 0 C10 1.98 10 3.96 10 6 C5.9472484 6.98248524 2.16138263 7.08159574 -2 7 C-1.34 4.69 -0.68 2.38 0 0 Z " fill="#8B8A90" transform="translate(210,110)"/>
<path d="M0 0 C1.98 0 3.96 0 6 0 C6.33 0.66 6.66 1.32 7 2 C5.35 1.67 3.7 1.34 2 1 C2 1.66 2 2.32 2 3 C3.65 3.33 5.3 3.66 7 4 C6.67 5.32 6.34 6.64 6 8 C4.35 8.33 2.7 8.66 1 9 C0.67 8.01 0.34 7.02 0 6 C1.98 6.495 1.98 6.495 4 7 C4 6.34 4 5.68 4 5 C2.68 4.67 1.36 4.34 0 4 C0 2.68 0 1.36 0 0 Z " fill="#3F3F3F" transform="translate(212,59)"/>
<path d="M0 0 C0.66 0 1.32 0 2 0 C2.33 0.99 2.66 1.98 3 3 C4.65 3 6.3 3 8 3 C8 5.64 8 8.28 8 11 C7.34 11 6.68 11 6 11 C6 9.02 6 7.04 6 5 C4.68 5 3.36 5 2 5 C2 6.98 2 8.96 2 11 C1.34 11 0.68 11 0 11 C0 7.37 0 3.74 0 0 Z " fill="#232225" transform="translate(220,56)"/>
<path d="M0 0 C0 2.83967231 -0.40267181 5.23735711 -1 8 C-0.34 8 0.32 8 1 8 C1 7.01 1 6.02 1 5 C1.99 5 2.98 5 4 5 C4 5.99 4 6.98 4 8 C4.66 8 5.32 8 6 8 C5.34 5.36 4.68 2.72 4 0 C5.32 0.66 6.64 1.32 8 2 C7.67 4.31 7.34 6.62 7 9 C4.03 9 1.06 9 -2 9 C-2.33 6.69 -2.66 4.38 -3 2 C-2.01 1.34 -1.02 0.68 0 0 Z " fill="#A596C2" transform="translate(17,59)"/>
<path d="M0 0 C4.29 0 8.58 0 13 0 C12.67 1.32 12.34 2.64 12 4 C7.71 4 3.42 4 -1 4 C-0.67 2.68 -0.34 1.36 0 0 Z " fill="#DFC8AC" transform="translate(513,207)"/>
<path d="M0 0 C3.96 0 7.92 0 12 0 C12 1.65 12 3.3 12 5 C11.38511719 4.9278125 10.77023437 4.855625 10.13671875 4.78125 C9.32847656 4.6884375 8.52023437 4.595625 7.6875 4.5 C6.48673828 4.36078125 6.48673828 4.36078125 5.26171875 4.21875 C2.88103445 3.95186537 2.88103445 3.95186537 0 4 C0 2.68 0 1.36 0 0 Z " fill="#B6B6B7" transform="translate(250,168)"/>
<path d="M0 0 C8.25 0 8.25 0 12 1 C11.67 2.32 11.34 3.64 11 5 C7.33333333 5 3.66666667 5 0 5 C0 3.35 0 1.7 0 0 Z " fill="#707070" transform="translate(258,106)"/>
<path d="M0 0 C2.97 0.33 5.94 0.66 9 1 C8.67 2.65 8.34 4.3 8 6 C5.03 5.67 2.06 5.34 -1 5 C-0.67 3.35 -0.34 1.7 0 0 Z " fill="#D2C9E5" transform="translate(356,206)"/>
<path d="M0 0 C1.32 0 2.64 0 4 0 C4 0.99 4 1.98 4 3 C4.99 3.33 5.98 3.66 7 4 C7 4.33 7 4.66 7 5 C5.02 5 3.04 5 1 5 C1 5.99 1 6.98 1 8 C2.98 7.34 4.96 6.68 7 6 C7 6.99 7 7.98 7 9 C4.69 9 2.38 9 0 9 C0 6.03 0 3.06 0 0 Z " fill="#F4F4F4" transform="translate(16,190)"/>
<path d="M0 0 C2 0 4 0 6 0 C6 4 6 4 4.125 6.125 C3.42375 6.74375 2.7225 7.3625 2 8 C1.34 8.66 0.68 9.32 0 10 C-1.125 8.375 -1.125 8.375 -2 6 C-1.125 2.75 -1.125 2.75 0 0 Z " fill="#E4E4E1" transform="translate(658,185)"/>
<path d="M0 0 C2.69082872 0.17635452 5.32851446 0.61835921 8 1 C7.67 2.32 7.34 3.64 7 5 C4.36 5.33 1.72 5.66 -1 6 C-1.042721 4.33388095 -1.04063832 2.66617115 -1 1 C-0.67 0.67 -0.34 0.34 0 0 Z " fill="#CACACB" transform="translate(381,167)"/>
<path d="M0 0 C3.63 0 7.26 0 11 0 C10.34 1.32 9.68 2.64 9 4 C8.34 4 7.68 4 7 4 C6.67 4.33 6.34 4.66 6 5 C4.00577205 5.36628677 2.00546689 5.70131344 0 6 C0 4.02 0 2.04 0 0 Z " fill="#A1A1A1" transform="translate(68,193)"/>
<path d="M0 0 C3.3 0.33 6.6 0.66 10 1 C10 2.98 10 4.96 10 7 C9.01 6.67 8.02 6.34 7 6 C7.66 6 8.32 6 9 6 C8.67 5.67 8.34 5.34 8 5 C5.30917128 5.17635452 2.67148554 5.61835921 0 6 C0 4.02 0 2.04 0 0 Z " fill="#B5B5B6" transform="translate(525,167)"/>
<path d="M0 0 C0.66 0.33 1.32 0.66 2 1 C2 2.98 2 4.96 2 7 C0.02 7 -1.96 7 -4 7 C-4.33 5.35 -4.66 3.7 -5 2 C-2.625 0.9375 -2.625 0.9375 0 0 Z " fill="#AEAEAE" transform="translate(750,116)"/>
<path d="M0 0 C1.32 0.33 2.64 0.66 4 1 C3.34 1 2.68 1 2 1 C2.33 1.99 2.66 2.98 3 4 C3.66 4.33 4.32 4.66 5 5 C5 4.01 5 3.02 5 2 C6.98 2 8.96 2 11 2 C11 3.32 11 4.64 11 6 C7.37 6 3.74 6 0 6 C0 4.02 0 2.04 0 0 Z " fill="#B6B6B9" transform="translate(13,96)"/>
<path d="M0 0 C0.33 0.99 0.66 1.98 1 3 C2.32 2.67 3.64 2.34 5 2 C5.66 4.31 6.32 6.62 7 9 C6.236875 8.67 5.47375 8.34 4.6875 8 C2.00930865 6.82563314 2.00930865 6.82563314 -1 7 C-1.66 5.68 -2.32 4.36 -3 3 C-2.01 2.01 -1.02 1.02 0 0 Z " fill="#F3F3F3" transform="translate(38,279)"/>
<path d="M0 0 C1.65 0 3.3 0 5 0 C5.33 0.99 5.66 1.98 6 3 C4.35 3.33 2.7 3.66 1 4 C0.67 4.99 0.34 5.98 0 7 C-1.65 7.33 -3.3 7.66 -5 8 C-5 6.02 -5 4.04 -5 2 C-4.01 2 -3.02 2 -2 2 C-1.34 1.67 -0.68 1.34 0 1 C0 0.67 0 0.34 0 0 Z " fill="#E3DAF1" transform="translate(389,205)"/>
<path d="M0 0 C0.226875 0.639375 0.45375 1.27875 0.6875 1.9375 C1.85250896 4.27193661 1.85250896 4.27193661 4.625 4.75 C5.40875 4.8325 6.1925 4.915 7 5 C7.33 5.99 7.66 6.98 8 8 C7.67 8.66 7.34 9.32 7 10 C6.01 9.67 5.02 9.34 4 9 C4 8.34 4 7.68 4 7 C2.7934375 7.2784375 2.7934375 7.2784375 1.5625 7.5625 C0.716875 7.706875 -0.12875 7.85125 -1 8 C-2 7 -2 7 -2.0625 4.4375 C-2.041875 3.633125 -2.02125 2.82875 -2 2 C-1.34 2 -0.68 2 0 2 C0 1.34 0 0.68 0 0 Z " fill="#060509" transform="translate(769,15)"/>
<path d="M0 0 C3.71599191 -0.20086443 4.77208445 -0.1519437 8 2 C8 3.32 8 4.64 8 6 C4.31245243 5.50168276 2.39509338 4.89932357 0 2 C-0.33 2.99 -0.66 3.98 -1 5 C-0.67 3.35 -0.34 1.7 0 0 Z " fill="#CDC1DF" transform="translate(438,206)"/>
<path d="M0 0 C2.64 0.33 5.28 0.66 8 1 C7.67 2.65 7.34 4.3 7 6 C2.25 6.125 2.25 6.125 0 5 C0 3.35 0 1.7 0 0 Z " fill="#A3A3A3" transform="translate(59,192)"/>
<path d="M0 0 C3.3 0 6.6 0 10 0 C10 1.32 10 2.64 10 4 C7.03 4 4.06 4 1 4 C0.67 2.68 0.34 1.36 0 0 Z " fill="#C9C9C9" transform="translate(262,119)"/>
<path d="M0 0 C3.63 0 7.26 0 11 0 C10.67 1.32 10.34 2.64 10 4 C7.69 4 5.38 4 3 4 C2.67 3.34 2.34 2.68 2 2 C1.34 2.66 0.68 3.32 0 4 C0 2.68 0 1.36 0 0 Z " fill="#D6ACA9" transform="translate(736,207)"/>
<path d="M0 0 C2.31 0 4.62 0 7 0 C7 2.31 7 4.62 7 7 C6.01 7 5.02 7 4 7 C4 5.35 4 3.7 4 2 C3.67 2.99 3.34 3.98 3 5 C2.01 5.33 1.02 5.66 0 6 C0 4.02 0 2.04 0 0 Z " fill="#B1B1B1" transform="translate(85,191)"/>
<path d="M0 0 C0.94875 0.04125 1.8975 0.0825 2.875 0.125 C2.875 1.775 2.875 3.425 2.875 5.125 C0.235 5.125 -2.405 5.125 -5.125 5.125 C-5.125 0.85616396 -4.22482433 0.16899297 0 0 Z " fill="#070708" transform="translate(215.125,117.875)"/>
<path d="M0 0 C3.3 0 6.6 0 10 0 C9.67 1.32 9.34 2.64 9 4 C5.7 4 2.4 4 -1 4 C-0.67 2.68 -0.34 1.36 0 0 Z " fill="#737373" transform="translate(450,112)"/>
<path d="M0 0 C3 0.125 3 0.125 4 1.125 C4.04063832 2.79117115 4.042721 4.45888095 4 6.125 C3.01 6.62 3.01 6.62 2 7.125 C2 5.475 2 3.825 2 2.125 C0.68 2.125 -0.64 2.125 -2 2.125 C-2 3.775 -2 5.425 -2 7.125 C-1.34 7.455 -0.68 7.785 0 8.125 C-1.32 7.795 -2.64 7.465 -4 7.125 C-4.04254356 5.12545254 -4.04080783 3.12458364 -4 1.125 C-3 0.125 -3 0.125 0 0 Z " fill="#262626" transform="translate(244,58.875)"/>
<path d="M0 0 C2.64 0 5.28 0 8 0 C8 1.98 8 3.96 8 6 C5.23723823 5.47731534 2.6739124 4.89130413 0 4 C0 2.68 0 1.36 0 0 Z " fill="#DBC7B4" transform="translate(563,207)"/>
<path d="M0 0 C3.3 0 6.6 0 10 0 C9.67 1.32 9.34 2.64 9 4 C7.88625 3.979375 6.7725 3.95875 5.625 3.9375 C2.16784079 3.73619282 2.16784079 3.73619282 0 5 C0 3.35 0 1.7 0 0 Z " fill="#E3C8AF" transform="translate(552,207)"/>
<path d="M0 0 C1.32 0.33 2.64 0.66 4 1 C4 1.66 4 2.32 4 3 C5.32 2.67 6.64 2.34 8 2 C8 3.32 8 4.64 8 6 C6.35 6.33 4.7 6.66 3 7 C3 6.34 3 5.68 3 5 C2.01 5.33 1.02 5.66 0 6 C0 4.02 0 2.04 0 0 Z " fill="#A7A7A7" transform="translate(33,168)"/>
<path d="M0 0 C0 1.65 0 3.3 0 5 C-0.61875 5.144375 -1.2375 5.28875 -1.875 5.4375 C-4.03258322 5.93152225 -4.03258322 5.93152225 -6 7 C-6 6.34 -6 5.68 -6 5 C-7.32 4.67 -8.64 4.34 -10 4 C-9.67 3.01 -9.34 2.02 -9 1 C-7.68 1 -6.36 1 -5 1 C-0.625 0 -0.625 0 0 0 Z " fill="#B8B8BA" transform="translate(521,167)"/>
<path d="M0 0 C3.3 0 6.6 0 10 0 C9.67 1.32 9.34 2.64 9 4 C6.21176345 5.0326802 5.1322726 5.04509293 2.25 4.0625 C1.5075 3.711875 0.765 3.36125 0 3 C0 2.01 0 1.02 0 0 Z " fill="#D5B3B6" transform="translate(723,207)"/>
<path d="M0 0 C0.66 0 1.32 0 2 0 C2.33 0.66 2.66 1.32 3 2 C3.66 1.34 4.32 0.68 5 0 C5 1.65 5 3.3 5 5 C5.66 5 6.32 5 7 5 C7 3.35 7 1.7 7 0 C7.33 0 7.66 0 8 0 C8 1.98 8 3.96 8 6 C4.7 6 1.4 6 -2 6 C-1.34 4.02 -0.68 2.04 0 0 Z " fill="#7E7D81" transform="translate(771,14)"/>
<path d="M0 0 C-0.99 0 -1.98 0 -3 0 C-2.67 1.98 -2.34 3.96 -2 6 C-3.98 6.33 -5.96 6.66 -8 7 C-8 4.69 -8 2.38 -8 0 C-4.94736336 -0.98120464 -3.05263664 -0.98120464 0 0 Z " fill="#E0E0E0" transform="translate(62,192)"/>
<path d="M0 0 C2.66666667 0.66666667 5.33333333 1.33333333 8 2 C8 3.32 8 4.64 8 6 C5.33333333 6 2.66666667 6 0 6 C0 4.02 0 2.04 0 0 Z " fill="#999999" transform="translate(82,168)"/>
<path d="M0 0 C1.1446875 0.2784375 1.1446875 0.2784375 2.3125 0.5625 C5.08967375 1.22819173 5.08967375 1.22819173 8 0 C7.34 1.98 6.68 3.96 6 6 C4.35 6 2.7 6 1 6 C0.67 4.02 0.34 2.04 0 0 Z " fill="#676766" transform="translate(232,105)"/>
<path d="M0 0 C1.67542976 0.28604898 3.34385343 0.61781233 5 1 C4.67 2.98 4.34 4.96 4 7 C2.35 6.67 0.7 6.34 -1 6 C-1.042721 4.33388095 -1.04063832 2.66617115 -1 1 C-0.67 0.67 -0.34 0.34 0 0 Z " fill="#3C3C3C" transform="translate(540,105)"/>
<path d="M0 0 C2.97 0.495 2.97 0.495 6 1 C6 2.65 6 4.3 6 6 C4.02 6 2.04 6 0 6 C0 4.02 0 2.04 0 0 Z " fill="#BABABA" transform="translate(51,96)"/>
<path d="M0 0 C2.475 0.495 2.475 0.495 5 1 C5 2.65 5 4.3 5 6 C3.35 6.33 1.7 6.66 0 7 C0 4.69 0 2.38 0 0 Z " fill="#DFE3E5" transform="translate(194,58)"/>
<path d="M0 0 C1.32 0 2.64 0 4 0 C4 0.66 4 1.32 4 2 C4.66 2 5.32 2 6 2 C6.33 1.34 6.66 0.68 7 0 C7 1.32 7 2.64 7 4 C6.01 4 5.02 4 4 4 C4 4.66 4 5.32 4 6 C2.68 6 1.36 6 0 6 C0 4.02 0 2.04 0 0 Z " fill="#A5A5A5" transform="translate(753,117)"/>
<path d="M0 0 C0.66 0 1.32 0 2 0 C2 0.66 2 1.32 2 2 C3.32 2 4.64 2 6 2 C6 3.32 6 4.64 6 6 C3.36 6 0.72 6 -2 6 C-1.34 4.02 -0.68 2.04 0 0 Z " fill="#B0B0B0" transform="translate(759,104)"/>
<path d="M0 0 C1.98 0 3.96 0 6 0 C5.67 2.31 5.34 4.62 5 7 C4.34 7 3.68 7 3 7 C3.33 5.35 3.66 3.7 4 2 C3.01 2 2.02 2 1 2 C1 3.65 1 5.3 1 7 C0.34 7 -0.32 7 -1 7 C-0.67 4.69 -0.34 2.38 0 0 Z " fill="#373737" transform="translate(547,105)"/>
<path d="M0 0 C2.64 0 5.28 0 8 0 C8 1.32 8 2.64 8 4 C5.36 4 2.72 4 0 4 C0 2.68 0 1.36 0 0 Z " fill="#B5B4B8" transform="translate(40,98)"/>
<path d="M0 0 C3.76687864 0 4.91190305 0.23537317 8 2 C8 3.32 8 4.64 8 6 C5.36 6 2.72 6 0 6 C0 4.02 0 2.04 0 0 Z " fill="#B09ED4" transform="translate(47,60)"/>
<path d="M0 0 C0.99 0.33 1.98 0.66 3 1 C2.34 1 1.68 1 1 1 C1 3.97 1 6.94 1 10 C-0.32 10 -1.64 10 -3 10 C-2.7215625 8.824375 -2.7215625 8.824375 -2.4375 7.625 C-1.74037734 5.02910225 -1.74037734 5.02910225 -3 3 C-2.01 2.01 -1.02 1.02 0 0 Z " fill="#BBB9BA" transform="translate(269,55)"/>
<path d="M0 0 C0.66 0 1.32 0 2 0 C2.33 0.99 2.66 1.98 3 3 C4.32 2.67 5.64 2.34 7 2 C7.33 3.65 7.66 5.3 8 7 C7.67 6.01 7.34 5.02 7 4 C6.01 4 5.02 4 4 4 C3.67 4.99 3.34 5.98 3 7 C2.01 7.33 1.02 7.66 0 8 C0 5.36 0 2.72 0 0 Z " fill="#4A4A4A" transform="translate(36,13)"/>
<path d="M0 0 C0 3.96 0 7.92 0 12 C-0.66 12 -1.32 12 -2 12 C-2 9.03 -2 6.06 -2 3 C-2.99 3 -3.98 3 -5 3 C-5 2.34 -5 1.68 -5 1 C-3 0 -3 0 0 0 Z " fill="#353433" transform="translate(512,183)"/>
<path d="M0 0 C2.64 0.33 5.28 0.66 8 1 C8 2.65 8 4.3 8 6 C6.35 6 4.7 6 3 6 C2.34 4.35 1.68 2.7 1 1 C0.67 2.32 0.34 3.64 0 5 C0 3.35 0 1.7 0 0 Z " fill="#B1B1B3" transform="translate(673,167)"/>
<path d="M0 0 C1.98 0 3.96 0 6 0 C6 2.31 6 4.62 6 7 C5.34 7 4.68 7 4 7 C4 5.35 4 3.7 4 2 C3.34 2 2.68 2 2 2 C2 3.65 2 5.3 2 7 C1.34 7 0.68 7 0 7 C0 4.69 0 2.38 0 0 Z " fill="#2E2E2E" transform="translate(531,105)"/>
<path d="M0 0 C1.32 0.33 2.64 0.66 4 1 C3.34 1 2.68 1 2 1 C2.33 2.32 2.66 3.64 3 5 C2.34 5 1.68 5 1 5 C0.67 6.65 0.34 8.3 0 10 C-0.66 10 -1.32 10 -2 10 C-2.25 3.375 -2.25 3.375 0 0 Z " fill="#333333" transform="translate(508,102)"/>
<path d="M0 0 C1.98 0 3.96 0 6 0 C6.33 0.99 6.66 1.98 7 3 C7.33 2.01 7.66 1.02 8 0 C8 1.32 8 2.64 8 4 C7.05125 3.979375 6.1025 3.95875 5.125 3.9375 C2.09333717 3.77448174 2.09333717 3.77448174 0 5 C-0.66 4.67 -1.32 4.34 -2 4 C-1.34 2.68 -0.68 1.36 0 0 Z " fill="#B1B0B6" transform="translate(55,230)"/>
<path d="M0 0 C0.99 0.33 1.98 0.66 3 1 C3 2.32 3 3.64 3 5 C3.66 5.33 4.32 5.66 5 6 C5.33 5.01 5.66 4.02 6 3 C6.33 3.99 6.66 4.98 7 6 C3.64672361 8.23551759 3.09256343 8.17283528 -0.6875 7.625 C-1.49574219 7.51414063 -2.30398437 7.40328125 -3.13671875 7.2890625 C-4.05904297 7.14597656 -4.05904297 7.14597656 -5 7 C-4.67 5.68 -4.34 4.36 -4 3 C-4 3.99 -4 4.98 -4 6 C-2.35 6 -0.7 6 1 6 C0.67 4.02 0.34 2.04 0 0 Z " fill="#E5F6EC" transform="translate(219,205)"/>
<path d="M0 0 C2.31 0 4.62 0 7 0 C7.33 1.32 7.66 2.64 8 4 C5.36 4.33 2.72 4.66 0 5 C0 3.35 0 1.7 0 0 Z " fill="#D5D0ED" transform="translate(144,192)"/>
<path d="M0 0 C0 3.96 0 7.92 0 12 C-0.66 12 -1.32 12 -2 12 C-2.33 9.03 -2.66 6.06 -3 3 C-3.66 3 -4.32 3 -5 3 C-5 2.34 -5 1.68 -5 1 C-3 0 -3 0 0 0 Z " fill="#33302E" transform="translate(209,183)"/>
<path d="M0 0 C2.31 0 4.62 0 7 0 C7 1.65 7 3.3 7 5 C4 6 4 6 1.8125 5.0625 C1.214375 4.711875 0.61625 4.36125 0 4 C0 2.66666667 0 1.33333333 0 0 Z " fill="#D5D5D5" transform="translate(516,118)"/>
<path d="M0 0 C1.98 0 3.96 0 6 0 C6 1.65 6 3.3 6 5 C4.68 5.33 3.36 5.66 2 6 C2 5.34 2 4.68 2 4 C1.34 4 0.68 4 0 4 C0 2.68 0 1.36 0 0 Z " fill="#7B7B7B" transform="translate(436,112)"/>
<path d="M0 0 C1.65 0 3.3 0 5 0 C5 0.99 5 1.98 5 3 C5.66 3.33 6.32 3.66 7 4 C3.7 4.66 0.4 5.32 -3 6 C-3.33 5.34 -3.66 4.68 -4 4 C-4.66 3.67 -5.32 3.34 -6 3 C-4.02 3 -2.04 3 0 3 C0 2.01 0 1.02 0 0 Z " fill="#F9F0DD" transform="translate(518,208)"/>
<path d="M0 0 C7.75 0.875 7.75 0.875 10 2 C10 2.66 10 3.32 10 4 C7.00468461 4.99843846 5.82744268 5.00732761 2.8125 4.5625 C1.554375 4.376875 0.29625 4.19125 -1 4 C-0.67 2.68 -0.34 1.36 0 0 Z " fill="#E2F4EC" transform="translate(204,203)"/>
<path d="M0 0 C0 1.32 0 2.64 0 4 C-1.65 4.66 -3.3 5.32 -5 6 C-5.99 5.01 -6.98 4.02 -8 3 C-4.93882432 0.37613513 -4.26826873 0 0 0 Z " fill="#C2C2C2" transform="translate(55,193)"/>
<path d="M0 0 C0.99 0 1.98 0 3 0 C3 3.96 3 7.92 3 12 C2.34 12 1.68 12 1 12 C1 9.03 1 6.06 1 3 C0.34 3 -0.32 3 -1 3 C-0.67 2.01 -0.34 1.02 0 0 Z " fill="#313236" transform="translate(212,183)"/>
<path d="M0 0 C0.66 0 1.32 0 2 0 C2.66 0.66 3.32 1.32 4 2 C4.33 1.67 4.66 1.34 5 1 C6.66617115 0.95936168 8.33388095 0.957279 10 1 C9.67 2.32 9.34 3.64 9 5 C9 4.01 9 3.02 9 2 C8.01 2 7.02 2 6 2 C6 2.99 6 3.98 6 5 C3.69 5 1.38 5 -1 5 C-0.67 3.35 -0.34 1.7 0 0 Z " fill="#AEAEAE" transform="translate(356,167)"/>
<path d="M0 0 C2.64 0 5.28 0 8 0 C8 1.65 8 3.3 8 5 C5 4 5 4 4 3 C3.67 3.66 3.34 4.32 3 5 C1.68 4.67 0.36 4.34 -1 4 C-0.01 3.01 0.98 2.02 2 1 C1.34 0.67 0.68 0.34 0 0 Z " fill="#AFAFAF" transform="translate(103,169)"/>
<path d="M0 0 C0 1.98 0 3.96 0 6 C-1.65 6 -3.3 6 -5 6 C-5.33 6.66 -5.66 7.32 -6 8 C-6 6.02 -6 4.04 -6 2 C-1.125 0 -1.125 0 0 0 Z " fill="#A8A8A8" transform="translate(65,120)"/>
<path d="M0 0 C0 1.65 0 3.3 0 5 C-2.64 5 -5.28 5 -8 5 C-7.67 3.68 -7.34 2.36 -7 1 C-1.125 0 -1.125 0 0 0 Z " fill="#D1A5A9" transform="translate(684,206)"/>
<path d="M0 0 C0 1.65 0 3.3 0 5 C-1.175625 4.9690625 -1.175625 4.9690625 -2.375 4.9375 C-4.98114961 4.81315937 -4.98114961 4.81315937 -7 6 C-7.33 4.35 -7.66 2.7 -8 1 C-1.125 0 -1.125 0 0 0 Z " fill="#ACCAB8" transform="translate(220,206)"/>
<path d="M0 0 C0 1.32 0 2.64 0 4 C-2.31 4 -4.62 4 -7 4 C-7 2.68 -7 1.36 -7 0 C-2.25 -1.125 -2.25 -1.125 0 0 Z " fill="#9D9D9D" transform="translate(82,146)"/>
<path d="M0 0 C0.33 1.32 0.66 2.64 1 4 C-0.65 4 -2.3 4 -4 4 C-4 3.34 -4 2.68 -4 2 C-4.33 2.66 -4.66 3.32 -5 4 C-5.66 4 -6.32 4 -7 4 C-7.33 2.68 -7.66 1.36 -8 0 C-4.94736336 -0.98120464 -3.05263664 -0.98120464 0 0 Z " fill="#CFCFCF" transform="translate(514,119)"/>
<path d="M0 0 C0.66 0 1.32 0 2 0 C2 3.63 2 7.26 2 11 C0.02 11 -1.96 11 -4 11 C-3.67 10.34 -3.34 9.68 -3 9 C-2.34 9 -1.68 9 -1 9 C-0.67 6.03 -0.34 3.06 0 0 Z " fill="#121113" transform="translate(270,56)"/>
<path d="M0 0 C0.99 0 1.98 0 3 0 C3.33 1.98 3.66 3.96 4 6 C2.02 6.33 0.04 6.66 -2 7 C-2 6.01 -2 5.02 -2 4 C-1.34 4.33 -0.68 4.66 0 5 C-0.2784375 4.0409375 -0.2784375 4.0409375 -0.5625 3.0625 C-0.706875 2.381875 -0.85125 1.70125 -1 1 C-0.67 0.67 -0.34 0.34 0 0 Z " fill="#CBCBCB" transform="translate(18,252)"/>
<path d="M0 0 C1.65 0 3.3 0 5 0 C5.66 1.65 6.32 3.3 7 5 C6.01 5.33 5.02 5.66 4 6 C4 4.35 4 2.7 4 1 C3.01 1.33 2.02 1.66 1 2 C1 3.32 1 4.64 1 6 C0.01 5.67 -0.98 5.34 -2 5 C-1.34 3.35 -0.68 1.7 0 0 Z " fill="#EFEFEF" transform="translate(17,251)"/>
<path d="M0 0 C2.64 0 5.28 0 8 0 C8 1.32 8 2.64 8 4 C5.36 4 2.72 4 0 4 C0 2.68 0 1.36 0 0 Z " fill="#B4B3B9" transform="translate(64,230)"/>
<path d="M0 0 C2.64 0 5.28 0 8 0 C8 1.32 8 2.64 8 4 C5.36 4 2.72 4 0 4 C0 2.68 0 1.36 0 0 Z " fill="#DEC7B1" transform="translate(583,207)"/>
<path d="M0 0 C2.31 0 4.62 0 7 0 C7 1.32 7 2.64 7 4 C4.69 4 2.38 4 0 4 C0 2.68 0 1.36 0 0 Z " fill="#E1C6AC" transform="translate(544,207)"/>
<path d="M0 0 C0.33 0 0.66 0 1 0 C1 1.98 1 3.96 1 6 C-0.98 6.33 -2.96 6.66 -5 7 C-5 5.35 -5 3.7 -5 2 C-3.35 2 -1.7 2 0 2 C0 1.34 0 0.68 0 0 Z " fill="#A7A7A7" transform="translate(64,144)"/>
<path d="M0 0 C2.31 0.33 4.62 0.66 7 1 C6.67 2.32 6.34 3.64 6 5 C6 4.01 6 3.02 6 2 C5.34 2 4.68 2 4 2 C3.67 2.99 3.34 3.98 3 5 C0.03 4.505 0.03 4.505 -3 4 C-2.34 3.67 -1.68 3.34 -1 3 C-0.67 2.01 -0.34 1.02 0 0 Z " fill="#A2A2A2" transform="translate(92,145)"/>
<path d="M0 0 C0.66 0 1.32 0 2 0 C2.33 1.32 2.66 2.64 3 4 C2.34 4 1.68 4 1 4 C1.33 5.65 1.66 7.3 2 9 C1.01 9 0.02 9 -1 9 C-1.625 5.625 -1.625 5.625 -2 2 C-1.34 1.34 -0.68 0.68 0 0 Z " fill="#363636" transform="translate(556,103)"/>
<path d="M0 0 C2.05078125 0.03255208 4.1015625 0.06510417 6.15234375 0.09765625 C6.15234375 0.75765625 6.15234375 1.41765625 6.15234375 2.09765625 C3.3931019 3.90177592 2.26262272 4.11038075 -1.09765625 3.72265625 C-2.00515625 3.51640625 -2.91265625 3.31015625 -3.84765625 3.09765625 C-2.36122845 0.12480066 -2.36122845 0.12480066 0 0 Z " fill="#F1EAF8" transform="translate(16.84765625,67.90234375)"/>
<path d="M0 0 C0.99 0.66 1.98 1.32 3 2 C3 2.33 3 2.66 3 3 C5.97 3.495 5.97 3.495 9 4 C8.67 4.99 8.34 5.98 8 7 C2 5.5 2 5.5 -4 4 C-2.68 3.67 -1.36 3.34 0 3 C0 2.01 0 1.02 0 0 Z " fill="#EFE6F5" transform="translate(42,63)"/>
<path d="M0 0 C1.98 0 3.96 0 6 0 C5.67 2.31 5.34 4.62 5 7 C3.68 7 2.36 7 1 7 C1 5.68 1 4.36 1 3 C1.99 3 2.98 3 4 3 C4 2.34 4 1.68 4 1 C2.35 1.33 0.7 1.66 -1 2 C-0.67 1.34 -0.34 0.68 0 0 Z " fill="#545454" transform="translate(250,59)"/>
<path d="M0 0 C0.99 0 1.98 0 3 0 C3 0.99 3 1.98 3 3 C3.99 3.33 4.98 3.66 6 4 C2.67438135 5.76062164 1.40826005 6.10784228 -2.3125 5.125 C-3.199375 4.75375 -4.08625 4.3825 -5 4 C-5 3.67 -5 3.34 -5 3 C-3.35 2.67 -1.7 2.34 0 2 C0 1.34 0 0.68 0 0 Z " fill="#FCF0DE" transform="translate(532,208)"/>
<path d="M0 0 C2.31 0 4.62 0 7 0 C6.01 0.495 6.01 0.495 5 1 C5 1.66 5 2.32 5 3 C5.66 3 6.32 3 7 3 C7 3.66 7 4.32 7 5 C4.03 5 1.06 5 -2 5 C-1.01 4.67 -0.02 4.34 1 4 C0.67 2.68 0.34 1.36 0 0 Z " fill="#DFD4ED" transform="translate(410,207)"/>
<path d="M0 0 C0.391875 0.515625 0.78375 1.03125 1.1875 1.5625 C0.8575 2.2225 0.5275 2.8825 0.1875 3.5625 C-0.4725 3.5625 -1.1325 3.5625 -1.8125 3.5625 C-2.1425 4.2225 -2.4725 4.8825 -2.8125 5.5625 C-2.8125 4.5725 -2.8125 3.5825 -2.8125 2.5625 C-5.4525 2.2325 -8.0925 1.9025 -10.8125 1.5625 C-3.29545455 -2.61363636 -3.29545455 -2.61363636 0 0 Z " fill="#FCF0E0" transform="translate(527.8125,205.4375)"/>
<path d="M0 0 C2.97 0 5.94 0 9 0 C8.34 1.32 7.68 2.64 7 4 C4.66666667 4 2.33333333 4 0 4 C0 2.68 0 1.36 0 0 Z " fill="#B0B0B2" transform="translate(390,168)"/>
<path d="M0 0 C0.99 1.485 0.99 1.485 2 3 C2.33 2.34 2.66 1.68 3 1 C5.5625 0.375 5.5625 0.375 8 0 C7.125 3.875 7.125 3.875 6 5 C4.00041636 5.04080783 1.99954746 5.04254356 0 5 C0 3.35 0 1.7 0 0 Z " fill="#8A8A8A" transform="translate(750,105)"/>
<path d="M0 0 C1.65 0 3.3 0 5 0 C4.34 3.3 3.68 6.6 3 10 C2.34 10 1.68 10 1 10 C1.33 7.36 1.66 4.72 2 2 C1.34 2 0.68 2 0 2 C0 1.34 0 0.68 0 0 Z " fill="#424242" transform="translate(514,102)"/>
<path d="M0 0 C0.99 0 1.98 0 3 0 C3 0.99 3 1.98 3 3 C4.65 3 6.3 3 8 3 C8 3.33 8 3.66 8 4 C6.35 4 4.7 4 3 4 C3 4.66 3 5.32 3 6 C3.66 6.33 4.32 6.66 5 7 C3.35 8.32 1.7 9.64 0 11 C0.66 7.7 1.32 4.4 2 1 C1.34 0.67 0.68 0.34 0 0 Z " fill="#D0D0D0" transform="translate(517,101)"/>
<path d="M0 0 C1.32 0 2.64 0 4 0 C3.814375 0.78375 3.62875 1.5675 3.4375 2.375 C2.74037734 4.97089775 2.74037734 4.97089775 4 7 C2.02 7 0.04 7 -2 7 C-1.34 6.67 -0.68 6.34 0 6 C0 4.02 0 2.04 0 0 Z " fill="#B8B8B8" transform="translate(232,61)"/>
<path d="M0 0 C0.625 3.0625 0.625 3.0625 1 6 C0.01 6 -0.98 6 -2 6 C-2 4.68 -2 3.36 -2 2 C-2.99 2 -3.98 2 -5 2 C-5.33 3.32 -5.66 4.64 -6 6 C-6 4.02 -6 2.04 -6 0 C-2.25 -1.125 -2.25 -1.125 0 0 Z " fill="#434343" transform="translate(98,15)"/>
<path d="M0 0 C2.1640625 -0.29296875 2.1640625 -0.29296875 4.625 -0.1875 C5.44226563 -0.16042969 6.25953125 -0.13335937 7.1015625 -0.10546875 C8.04128906 -0.05326172 8.04128906 -0.05326172 9 0 C9.33 0.66 9.66 1.32 10 2 C5.95858806 2.63394697 2.0934693 3.12404452 -2 3 C-1.34 2.01 -0.68 1.02 0 0 Z " fill="#262626" transform="translate(770,9)"/>
<path d="M0 0 C0.66 0.66 1.32 1.32 2 2 C3.32 2 4.64 2 6 2 C6 3.32 6 4.64 6 6 C4.02 6 2.04 6 0 6 C0 4.02 0 2.04 0 0 Z " fill="#A2A2A2" transform="translate(69,276)"/>
<path d="M0 0 C2.31 0 4.62 0 7 0 C6.67 1.32 6.34 2.64 6 4 C3.69 4 1.38 4 -1 4 C-0.67 2.68 -0.34 1.36 0 0 Z " fill="#C1B3D7" transform="translate(419,207)"/>
<path d="M0 0 C0.33 0.66 0.66 1.32 1 2 C1.78375 1.67 2.5675 1.34 3.375 1 C6 0 6 0 8 0 C8 1.32 8 2.64 8 4 C5.36 4 2.72 4 0 4 C0 2.68 0 1.36 0 0 Z " fill="#9F9F9F" transform="translate(60,170)"/>
<path d="M0 0 C2.475 0.495 2.475 0.495 5 1 C5.33 2.32 5.66 3.64 6 5 C5.01 5.66 4.02 6.32 3 7 C2.01 6.34 1.02 5.68 0 5 C-0.1875 2.375 -0.1875 2.375 0 0 Z " fill="#CFCFCF" transform="translate(409,167)"/>
<path d="M0 0 C1.32 0.33 2.64 0.66 4 1 C4 1.66 4 2.32 4 3 C5.32 3.33 6.64 3.66 8 4 C7.67 4.99 7.34 5.98 7 7 C6.67 6.01 6.34 5.02 6 4 C4.02 4.33 2.04 4.66 0 5 C0 3.35 0 1.7 0 0 Z " fill="#CBC6E4" transform="translate(144,168)"/>
<path d="M0 0 C2.97 0.495 2.97 0.495 6 1 C6 2.32 6 3.64 6 5 C4.02 5 2.04 5 0 5 C0 3.35 0 1.7 0 0 Z " fill="#A2A2A2" transform="translate(114,145)"/>
<path d="M0 0 C0 0.66 0 1.32 0 2 C-0.66 2 -1.32 2 -2 2 C-2 3.65 -2 5.3 -2 7 C-2.99 7 -3.98 7 -5 7 C-5.33 5.02 -5.66 3.04 -6 1 C-4 0 -4 0 0 0 Z " fill="#595959" transform="translate(531,105)"/>
<path d="M0 0 C-0.33 0.99 -0.66 1.98 -1 3 C-1.33 3 -1.66 3 -2 3 C-2.33 5.31 -2.66 7.62 -3 10 C-3.33 9.01 -3.66 8.02 -4 7 C-4.99 6.67 -5.98 6.34 -7 6 C-6.34 5.34 -5.68 4.68 -5 4 C-5.66 3.34 -6.32 2.68 -7 2 C-4.35261084 0.5393715 -3.10551666 0 0 0 Z " fill="#E3DBF4" transform="translate(50,56)"/>
<path d="M0 0 C1.65 0 3.3 0 5 0 C5 1.65 5 3.3 5 5 C3.35 5 1.7 5 0 5 C0 3.35 0 1.7 0 0 Z " fill="#C2C2C2" transform="translate(63,253)"/>
<path d="M0 0 C0.33 0.66 0.66 1.32 1 2 C2.32 1.67 3.64 1.34 5 1 C5 1.99 5 2.98 5 4 C3.68 4 2.36 4 1 4 C1 4.66 1 5.32 1 6 C-0.32 5.67 -1.64 5.34 -3 5 C-3 4.01 -3 3.02 -3 2 C-2.01 2 -1.02 2 0 2 C0 1.34 0 0.68 0 0 Z " fill="#E9E8EC" transform="translate(52,232)"/>
<path d="M0 0 C0.66 0.33 1.32 0.66 2 1 C1.67 1.66 1.34 2.32 1 3 C1.66 3 2.32 3 3 3 C3 2.01 3 1.02 3 0 C3.99 0.33 4.98 0.66 6 1 C6 1.99 6 2.98 6 4 C2.7 4 -0.6 4 -4 4 C-3.67 3.01 -3.34 2.02 -3 1 C-3 1.66 -3 2.32 -3 3 C-2.01 3 -1.02 3 0 3 C0 2.01 0 1.02 0 0 Z " fill="#D3AEAE" transform="translate(714,207)"/>
<path d="M0 0 C0 1.65 0 3.3 0 5 C-1.98 5 -3.96 5 -6 5 C-5.6875 3.0625 -5.6875 3.0625 -5 1 C-2 0 -2 0 0 0 Z " fill="#BEBEBE" transform="translate(221,167)"/>
<path d="M0 0 C0.99 0.33 1.98 0.66 3 1 C2.67 2.32 2.34 3.64 2 5 C-0.31 5 -2.62 5 -5 5 C-4.67 3.68 -4.34 2.36 -4 1 C-3.67 1.66 -3.34 2.32 -3 3 C-2.01 2.01 -1.02 1.02 0 0 Z " fill="#B19FD7" transform="translate(61,61)"/>
<path d="M0 0 C2.31 0 4.62 0 7 0 C6.01 0.495 6.01 0.495 5 1 C5 1.66 5 2.32 5 3 C5.66 3.33 6.32 3.66 7 4 C4.36 4 1.72 4 -1 4 C-0.67 2.68 -0.34 1.36 0 0 Z " fill="#D3A3A6" transform="translate(759,207)"/>
<path d="M0 0 C3.125 -0.1875 3.125 -0.1875 6 0 C6.33 0.99 6.66 1.98 7 3 C4.03 3 1.06 3 -2 3 C-1.34 2.01 -0.68 1.02 0 0 Z " fill="#FCF5E6" transform="translate(533,204)"/>
<path d="M0 0 C0.66 0.33 1.32 0.66 2 1 C1.67 1.66 1.34 2.32 1 3 C1.928125 2.2575 1.928125 2.2575 2.875 1.5 C5 0 5 0 7 0 C7 1.32 7 2.64 7 4 C3.7 4 0.4 4 -3 4 C-2.01 3.67 -1.02 3.34 0 3 C0 2.01 0 1.02 0 0 Z " fill="#F0EEF8" transform="translate(145,197)"/>
<path d="M0 0 C0.93423645 3.01031744 1.04449911 3.86650268 0 7 C-1.32 7 -2.64 7 -4 7 C-4 5.02 -4 3.04 -4 1 C-2 0 -2 0 0 0 Z " fill="#C5C5C7" transform="translate(227,166)"/>
<path d="M0 0 C0 1.98 0 3.96 0 6 C-0.99 6 -1.98 6 -3 6 C-3.12375 5.360625 -3.2475 4.72125 -3.375 4.0625 C-3.684375 3.0415625 -3.684375 3.0415625 -4 2 C-4.66 1.67 -5.32 1.34 -6 1 C-3 0 -3 0 0 0 Z " fill="#E2E2E2" transform="translate(25,167)"/>
<path d="M0 0 C0.99 0.495 0.99 0.495 2 1 C4.00800456 0.71887936 6.01014051 0.38932033 8 0 C7 3 7 3 4 5 C2.68 5 1.36 5 0 5 C0 3.35 0 1.7 0 0 Z " fill="#ACACAC" transform="translate(100,145)"/>
<path d="M0 0 C0.33 0 0.66 0 1 0 C1 4.29 1 8.58 1 13 C0.01 13.33 -0.98 13.66 -2 14 C-4.1875 12.5625 -4.1875 12.5625 -6 11 C-4.02 11 -2.04 11 0 11 C0 7.37 0 3.74 0 0 Z " fill="#B2B5B8" transform="translate(272,56)"/>
<path d="M0 0 C1.5 1.0625 1.5 1.0625 3 3 C3.1875 6.6875 3.1875 6.6875 3 10 C2.01 8.68 1.02 7.36 0 6 C-0.33 6.66 -0.66 7.32 -1 8 C-1.08226668 4.95613276 -0.97608217 2.92824652 0 0 Z " fill="#2A2A2D" transform="translate(780,11)"/>
<path d="M0 0 C0 1.65 0 3.3 0 5 C-1.98 5 -3.96 5 -6 5 C-6 3.68 -6 2.36 -6 1 C-3.92446352 0.4465236 -2.15634036 0 0 0 Z " fill="#A3A3A3" transform="translate(45,253)"/>
<path d="M0 0 C2.17532857 2.17532857 2.3662254 3.10274469 3 6 C3.33 6.66 3.66 7.32 4 8 C2.35 8 0.7 8 -1 8 C-1.5625 6.0625 -1.5625 6.0625 -2 4 C-1.67 3.67 -1.34 3.34 -1 3 C-1.66 2.34 -2.32 1.68 -3 1 C-2.01 0.67 -1.02 0.34 0 0 Z " fill="#E0E0E0" transform="translate(90,168)"/>
<path d="M0 0 C2.97 0 5.94 0 9 0 C7.3125 2.0625 7.3125 2.0625 5 4 C2.25 3.75 2.25 3.75 0 3 C0 2.01 0 1.02 0 0 Z " fill="#ACACAE" transform="translate(691,168)"/>
<path d="M0 0 C1.98 0 3.96 0 6 0 C6 1.65 6 3.3 6 5 C3.03 4.505 3.03 4.505 0 4 C0 2.68 0 1.36 0 0 Z " fill="#B9B9B9" transform="translate(664,168)"/>
<path d="M0 0 C1.2065625 0.0309375 1.2065625 0.0309375 2.4375 0.0625 C2.1075 1.3825 1.7775 2.7025 1.4375 4.0625 C0.1175 4.3925 -1.2025 4.7225 -2.5625 5.0625 C-3.125 3.125 -3.125 3.125 -3.5625 1.0625 C-2.5625 0.0625 -2.5625 0.0625 0 0 Z " fill="#B9B9B9" transform="translate(211.5625,167.9375)"/>
<path d="M0 0 C0.33 0.66 0.66 1.32 1 2 C1.66 2.33 2.32 2.66 3 3 C2.67 3.66 2.34 4.32 2 5 C-0.5625 5.625 -0.5625 5.625 -3 6 C-3.33 4.68 -3.66 3.36 -4 2 C-2.68 1.34 -1.36 0.68 0 0 Z " fill="#F4F4F4" transform="translate(20,160)"/>
<path d="M0 0 C0 1.65 0 3.3 0 5 C-1.98 5 -3.96 5 -6 5 C-6 3.68 -6 2.36 -6 1 C-3.92446352 0.4465236 -2.15634036 0 0 0 Z " fill="#A1A1A1" transform="translate(45,121)"/>
<path d="M0 0 C1.32 0.33 2.64 0.66 4 1 C3.25 5.75 3.25 5.75 1 8 C-0.35439668 5.29120665 -0.06501451 2.99066732 0 0 Z " fill="#07070C" transform="translate(220,109)"/>
<path d="M0 0 C1.32 0.33 2.64 0.66 4 1 C3.67 2.65 3.34 4.3 3 6 C2.01 6 1.02 6 0 6 C0 4.02 0 2.04 0 0 Z " fill="#A6A6A6" transform="translate(715,104)"/>
<path d="M0 0 C0.99 0.33 1.98 0.66 3 1 C3.33 1.99 3.66 2.98 4 4 C4.99 4.33 5.98 4.66 7 5 C7 5.66 7 6.32 7 7 C5.68 6.67 4.36 6.34 3 6 C3 6.66 3 7.32 3 8 C2.34 8 1.68 8 1 8 C0.67 5.36 0.34 2.72 0 0 Z " fill="#CECED2" transform="translate(209,59)"/>
<path d="M0 0 C2.16874252 0.50603992 3.99967627 0.99983813 6 2 C5.67 3.32 5.34 4.64 5 6 C5 5.34 5 4.68 5 4 C3.35 4.33 1.7 4.66 0 5 C0 3.35 0 1.7 0 0 Z " fill="#9A9A9A" transform="translate(52,276)"/>
<path d="M0 0 C2.31 0 4.62 0 7 0 C7 1.32 7 2.64 7 4 C6.01 4 5.02 4 4 4 C3.34 4.66 2.68 5.32 2 6 C1.34 4.02 0.68 2.04 0 0 Z " fill="#D9ABAF" transform="translate(665,207)"/>
<path d="M0 0 C1.98 0 3.96 0 6 0 C6 1.32 6 2.64 6 4 C4.02 4 2.04 4 0 4 C0 2.68 0 1.36 0 0 Z " fill="#D3ADAD" transform="translate(703,207)"/>
<path d="M0 0 C1.65 0 3.3 0 5 0 C4.67 1.32 4.34 2.64 4 4 C2.68 4 1.36 4 0 4 C0 2.68 0 1.36 0 0 Z " fill="#AECEBA" transform="translate(271,207)"/>
<path d="M0 0 C0.66 0 1.32 0 2 0 C2 0.66 2 1.32 2 2 C2.66 2 3.32 2 4 2 C4.33 1.34 4.66 0.68 5 0 C5.33 0.99 5.66 1.98 6 3 C1.66726186 3.92844389 -1.66726186 3.92844389 -6 3 C-6 2.67 -6 2.34 -6 2 C-4.02 2 -2.04 2 0 2 C0 1.34 0 0.68 0 0 Z " fill="#E8FBF2" transform="translate(229,204)"/>
<path d="M0 0 C0.66 0 1.32 0 2 0 C2 0.99 2 1.98 2 3 C2.99 3 3.98 3 5 3 C5 3.99 5 4.98 5 6 C3.35 6 1.7 6 0 6 C0 4.02 0 2.04 0 0 Z " fill="#F3F3F3" transform="translate(16,169)"/>
<path d="M0 0 C0.66 0.33 1.32 0.66 2 1 C2 2.32 2 3.64 2 5 C0.35 5.33 -1.3 5.66 -3 6 C-3.33 4.68 -3.66 3.36 -4 2 C-2.125 0.9375 -2.125 0.9375 0 0 Z " fill="#ADADAD" transform="translate(95,168)"/>
<path d="M0 0 C0 1.65 0 3.3 0 5 C-1.98 5 -3.96 5 -6 5 C-6 3.68 -6 2.36 -6 1 C-3.92446352 0.4465236 -2.15634036 0 0 0 Z " fill="#9E9E9E" transform="translate(45,145)"/>
<path d="M0 0 C1.98 0 3.96 0 6 0 C5.67 1.32 5.34 2.64 5 4 C3.35 4 1.7 4 0 4 C0 2.68 0 1.36 0 0 Z " fill="#A9A9A9" transform="translate(52,122)"/>
<path d="M0 0 C1.98 0 3.96 0 6 0 C6 0.66 6 1.32 6 2 C4.35 2.33 2.7 2.66 1 3 C1 4.32 1 5.64 1 7 C0.01 6.67 -0.98 6.34 -2 6 C-1.34 4.02 -0.68 2.04 0 0 Z " fill="#D6D3D1" transform="translate(201,60)"/>
<path d="M0 0 C1.98 0 3.96 0 6 0 C6 1.32 6 2.64 6 4 C5.38125 3.814375 4.7625 3.62875 4.125 3.4375 C1.95839822 2.76313824 1.95839822 2.76313824 0 4 C0 2.68 0 1.36 0 0 Z " fill="#A7C9B6" transform="translate(223,207)"/>
<path d="M0 0 C0.33 0 0.66 0 1 0 C1 1.98 1 3.96 1 6 C0.34 6 -0.32 6 -1 6 C-1 6.66 -1 7.32 -1 8 C-1.99 7.67 -2.98 7.34 -4 7 C-3.34 7 -2.68 7 -2 7 C-2 5.68 -2 4.36 -2 3 C-2.66 2.67 -3.32 2.34 -4 2 C-2.68 2 -1.36 2 0 2 C0 1.34 0 0.68 0 0 Z " fill="#A2C5B3" transform="translate(235,205)"/>
<path d="M0 0 C2.31 0.33 4.62 0.66 7 1 C4.25 4.875 4.25 4.875 2 6 C1.34 4.02 0.68 2.04 0 0 Z " fill="#EAD0CF" transform="translate(671,205)"/>
<path d="M0 0 C1.98 0.66 3.96 1.32 6 2 C6 2.66 6 3.32 6 4 C3.36 4 0.72 4 -2 4 C-1.34 2.68 -0.68 1.36 0 0 Z " fill="#2D2E2A" transform="translate(661,191)"/>
<path d="M0 0 C0 1.98 0 3.96 0 6 C-0.66 6 -1.32 6 -2 6 C-2 5.01 -2 4.02 -2 3 C-2.66 3 -3.32 3 -4 3 C-4.33 3.99 -4.66 4.98 -5 6 C-4.625 3.5625 -4.625 3.5625 -4 1 C-2 0 -2 0 0 0 Z " fill="#A8A8A8" transform="translate(47,168)"/>
<path d="M0 0 C2.62187494 1.04874998 3.79371361 1.64931313 5.25 4.125 C5.4975 4.74375 5.745 5.3625 6 6 C3.13275314 5.42655063 2.1385485 5.1385485 0 3 C0 2.01 0 1.02 0 0 Z " fill="#232226" transform="translate(218,104)"/>
<path d="M0 0 C0.99 0 1.98 0 3 0 C3.33 0.99 3.66 1.98 4 3 C3.67 3.66 3.34 4.32 3 5 C2.34 5 1.68 5 1 5 C0.34 5.66 -0.32 6.32 -1 7 C-1 6.34 -1 5.68 -1 5 C-1.66 4.67 -2.32 4.34 -3 4 C-2.34 3.67 -1.68 3.34 -1 3 C-0.67 2.01 -0.34 1.02 0 0 Z " fill="#EEE9F6" transform="translate(51,56)"/>
<path d="M0 0 C1.66666667 0 3.33333333 0 5 0 C4.34 2.31 3.68 4.62 3 7 C2.01 6.67 1.02 6.34 0 6 C0 4.02 0 2.04 0 0 Z " fill="#444345" transform="translate(45,16)"/>
<path d="M0 0 C1.32 0.66 2.64 1.32 4 2 C4 4.31 4 6.62 4 9 C3.731875 8.38125 3.46375 7.7625 3.1875 7.125 C2.04443152 4.7004767 2.04443152 4.7004767 -1 3 C-0.67 2.01 -0.34 1.02 0 0 Z " fill="#CFCFCF" transform="translate(64,273)"/>
<path d="M0 0 C0.66 0.66 1.32 1.32 2 2 C0.68 3.32 -0.64 4.64 -2 6 C-4.475 5.01 -4.475 5.01 -7 4 C-6.01 3.34 -5.02 2.68 -4 2 C-4 2.66 -4 3.32 -4 4 C-2.68 2.68 -1.36 1.36 0 0 Z " fill="#E8E8E8" transform="translate(46,273)"/>
<path d="M0 0 C0.99 0 1.98 0 3 0 C3 1.65 3 3.3 3 5 C1.68 5 0.36 5 -1 5 C-0.67 3.35 -0.34 1.7 0 0 Z " fill="#BFB9DF" transform="translate(144,252)"/>
<path d="M0 0 C0 1.65 0 3.3 0 5 C-2.97 4.505 -2.97 4.505 -6 4 C-6 3.34 -6 2.68 -6 2 C-2.25 0 -2.25 0 0 0 Z " fill="#A9CAB8" transform="translate(259,206)"/>
<path d="M0 0 C0.99 0 1.98 0 3 0 C3 1.32 3 2.64 3 4 C1.68 4.33 0.36 4.66 -1 5 C-1 1 -1 1 0 0 Z " fill="#ECECEB" transform="translate(661,185)"/>
<path d="M0 0 C2.475 0.495 2.475 0.495 5 1 C4.01 1.495 4.01 1.495 3 2 C3.33 4.31 3.66 6.62 4 9 C3.01 9 2.02 9 1 9 C1.020625 7.88625 1.04125 6.7725 1.0625 5.625 C1.26380718 2.16784079 1.26380718 2.16784079 0 0 Z " fill="#EAE6FB" transform="translate(11,59)"/>
<path d="M0 0 C0.66 0.33 1.32 0.66 2 1 C1.67 2.98 1.34 4.96 1 7 C0.01 7.33 -0.98 7.66 -2 8 C-2.99 7.34 -3.98 6.68 -5 6 C-3.68 5.67 -2.36 5.34 -1 5 C-0.67 3.35 -0.34 1.7 0 0 Z " fill="#222222" transform="translate(199,59)"/>
<path d="M0 0 C2.0625 0.4375 2.0625 0.4375 4 1 C3.67 1.66 3.34 2.32 3 3 C3 3.99 3 4.98 3 6 C1.68 6 0.36 6 -1 6 C-1.042721 4.33388095 -1.04063832 2.66617115 -1 1 C-0.67 0.67 -0.34 0.34 0 0 Z " fill="#434247" transform="translate(52,15)"/>
<path d="M0 0 C1.32 0.66 2.64 1.32 4 2 C3.67 2.66 3.34 3.32 3 4 C2.01 4.33 1.02 4.66 0 5 C-0.33 5.99 -0.66 6.98 -1 8 C-1.125 2.25 -1.125 2.25 0 0 Z " fill="#181818" transform="translate(767,12)"/>
<path d="M0 0 C0.99 0 1.98 0 3 0 C3.33 1.65 3.66 3.3 4 5 C2.0625 4.6875 2.0625 4.6875 0 4 C-0.33 3.01 -0.66 2.02 -1 1 C-0.67 0.67 -0.34 0.34 0 0 Z " fill="#DFDFDF" transform="translate(18,272)"/>
<path d="M0 0 C0.99 0.33 1.98 0.66 3 1 C3 2.32 3 3.64 3 5 C1.68 4.67 0.36 4.34 -1 4 C-0.67 2.68 -0.34 1.36 0 0 Z " fill="#E3D3BA" transform="translate(537,207)"/>
<path d="M0 0 C1.32 0 2.64 0 4 0 C4 1.32 4 2.64 4 4 C4.66 4.33 5.32 4.66 6 5 C3.03 4.505 3.03 4.505 0 4 C0 2.68 0 1.36 0 0 Z " fill="#F5E9D3" transform="translate(571,207)"/>
<path d="M0 0 C1.98 0 3.96 0 6 0 C6 1.32 6 2.64 6 4 C5.01 4 4.02 4 3 4 C3 3.01 3 2.02 3 1 C2.34 1 1.68 1 1 1 C0.67 1.99 0.34 2.98 0 4 C0 2.68 0 1.36 0 0 Z " fill="#CEA5A6" transform="translate(696,207)"/>
<path d="M0 0 C1.32 0.33 2.64 0.66 4 1 C4.12375 1.639375 4.2475 2.27875 4.375 2.9375 C4.684375 3.9584375 4.684375 3.9584375 5 5 C5.66 5.33 6.32 5.66 7 6 C6.34 6 5.68 6 5 6 C4.67 6.66 4.34 7.32 4 8 C4 6.68 4 5.36 4 4 C3.01 4 2.02 4 1 4 C0.67 2.68 0.34 1.36 0 0 Z " fill="#C1C1C1" transform="translate(17,168)"/>
<path d="M0 0 C0.33 0.66 0.66 1.32 1 2 C1.66 2 2.32 2 3 2 C3 2.99 3 3.98 3 5 C2.01 5.33 1.02 5.66 0 6 C-0.66 5.67 -1.32 5.34 -2 5 C-2 4.01 -2 3.02 -2 2 C-1.34 2 -0.68 2 0 2 C0 1.34 0 0.68 0 0 Z " fill="#B9B9BB" transform="translate(239,167)"/>
<path d="M0 0 C1.65 0 3.3 0 5 0 C5.33 0.66 5.66 1.32 6 2 C5.67 2.66 5.34 3.32 5 4 C3.35 4 1.7 4 0 4 C0 2.68 0 1.36 0 0 Z " fill="#AAAAAA" transform="translate(66,122)"/>
<path d="M0 0 C0.99 0 1.98 0 3 0 C3.33 1.65 3.66 3.3 4 5 C2.68 5 1.36 5 0 5 C0 3.35 0 1.7 0 0 Z " fill="#D4D4D4" transform="translate(528,118)"/>
<path d="M0 0 C0.99 0 1.98 0 3 0 C3 1.98 3 3.96 3 6 C2.01 6 1.02 6 0 6 C0 4.02 0 2.04 0 0 Z " fill="#A4A4A4" transform="translate(702,104)"/>
<path d="M0 0 C-0.33 1.32 -0.66 2.64 -1 4 C-2.65 4 -4.3 4 -6 4 C-6 2.68 -6 1.36 -6 0 C-3.50907189 -1.24546405 -2.58919267 -0.7767578 0 0 Z " fill="#D5C5F3" transform="translate(59,61)"/>
<path d="M0 0 C1.98 0 3.96 0 6 0 C6.33 0.66 6.66 1.32 7 2 C5.35 1.67 3.7 1.34 2 1 C2.33 1.99 2.66 2.98 3 4 C1.68 3.67 0.36 3.34 -1 3 C-0.67 2.01 -0.34 1.02 0 0 Z " fill="#2A2A2C" transform="translate(212,59)"/>
<path d="M0 0 C0.99 0 1.98 0 3 0 C3 1.65 3 3.3 3 5 C1.68 4.67 0.36 4.34 -1 4 C-0.67 2.68 -0.34 1.36 0 0 Z " fill="#B4ACDA" transform="translate(144,144)"/>
<path d="M0 0 C0.66 0 1.32 0 2 0 C2.33 1.98 2.66 3.96 3 6 C1.68 5.67 0.36 5.34 -1 5 C-0.67 3.35 -0.34 1.7 0 0 Z " fill="#BEBEBE" transform="translate(233,117)"/>
<path d="M0 0 C1.32 0 2.64 0 4 0 C4 1.65 4 3.3 4 5 C2.68 5 1.36 5 0 5 C0 3.35 0 1.7 0 0 Z " fill="#B7B2D1" transform="translate(143,120)"/>
<path d="M0 0 C1.98 0.495 1.98 0.495 4 1 C3.67 1.99 3.34 2.98 3 4 C1.68 4 0.36 4 -1 4 C-0.67 2.68 -0.34 1.36 0 0 Z " fill="#838383" transform="translate(450,112)"/>
<path d="M0 0 C0.66 0 1.32 0 2 0 C2 1.98 2 3.96 2 6 C0.35 6.33 -1.3 6.66 -3 7 C-2.34 6.34 -1.68 5.68 -1 5 C-0.35232207 2.42938689 -0.35232207 2.42938689 0 0 Z " fill="#171717" transform="translate(236,60)"/>
<path d="M0 0 C0.98120464 3.05263664 0.98120464 4.94736336 0 8 C-0.66 7.67 -1.32 7.34 -2 7 C-2 5.35 -2 3.7 -2 2 C-1.34 2 -0.68 2 0 2 C0 1.34 0 0.68 0 0 Z " fill="#0E0E11" transform="translate(769,15)"/>
<path d="M0 0 C0.99 0 1.98 0 3 0 C2.67 1.98 2.34 3.96 2 6 C0.68 5.34 -0.64 4.68 -2 4 C-1.34 4 -0.68 4 0 4 C0 2.68 0 1.36 0 0 Z " fill="#EEEEEE" transform="translate(93,17)"/>
</svg>
